<svg width="22" height="22" viewBox="0 0 22 22" fill="none" xmlns="http://www.w3.org/2000/svg">
<path d="M17.5948 8.08899L17.5992 8.24959V9.16589L18.8829 9.18239C19.1069 9.18163 19.3234 9.26326 19.4911 9.41173C19.6589 9.5602 19.7662 9.76515 19.7926 9.98759L19.7992 10.0987V11.9324C19.8001 12.1544 19.72 12.3691 19.5741 12.5363C19.4281 12.7035 19.2262 12.8118 19.0061 12.841L18.8829 12.8487H17.5992V13.7496C17.599 14.4508 17.331 15.1255 16.8499 15.6356C16.3687 16.1458 15.7109 16.4529 15.0109 16.4941L14.8492 16.4996H7.69922C7.36812 16.4941 7.14702 16.2774 7.14702 15.9441C7.14702 15.6108 7.36702 15.3996 7.69922 15.3996H15.1308C15.4726 15.3995 15.8021 15.2722 16.0551 15.0424C16.3081 14.8126 16.4664 14.4968 16.4992 14.1566L16.5058 14.0246V7.96909C16.506 7.62712 16.3788 7.29735 16.149 7.04413C15.9191 6.79091 15.6032 6.63242 15.2628 6.59959L15.1308 6.59299H10.4888C10.1192 6.59409 9.89922 6.44229 9.89922 6.04849C9.89922 5.65469 10.1445 5.49959 10.4877 5.49959H14.8492C15.5506 5.4995 16.2256 5.76743 16.736 6.24857C17.2463 6.72971 17.5536 7.38879 17.5948 8.08899ZM6.91822 3.67359L7.01172 3.66699C7.35932 3.66699 7.64752 3.92549 7.69262 4.26099L7.69922 4.35449V5.50069L8.11172 5.50619C8.49122 5.50619 8.79922 5.81419 8.79922 6.19369V8.29689C8.79922 9.18239 8.08092 9.90069 7.19542 9.90069H3.80302C3.37784 9.90011 2.97025 9.73095 2.6696 9.43031C2.36896 9.12966 2.1998 8.72207 2.19922 8.29689V6.19369C2.19922 5.81419 2.50722 5.50619 2.88672 5.50619H3.29922V4.36109C3.29922 4.01239 3.55772 3.72529 3.89322 3.67909L3.98672 3.67359C4.33432 3.67359 4.62252 3.93209 4.66872 4.26759L4.67422 4.36109V5.50619L6.32422 5.50069V4.35449C6.32422 4.00689 6.58382 3.71979 6.91822 3.67359ZM6.04922 9.89959V15.9496C6.04922 16.0955 5.99127 16.2354 5.88813 16.3385C5.78498 16.4416 5.64509 16.4996 5.49922 16.4996C5.35335 16.4996 5.21346 16.4416 5.11031 16.3385C5.00717 16.2354 4.94922 16.0955 4.94922 15.9496V9.89959H6.04922ZM7.69922 6.59959V8.24959C7.69952 8.37851 7.65453 8.50344 7.57209 8.60255C7.48966 8.70167 7.37503 8.76869 7.24822 8.79189L7.14922 8.79959H3.84922C3.72049 8.79963 3.59583 8.75452 3.49693 8.67211C3.39804 8.5897 3.33119 8.47522 3.30802 8.34859L3.29922 8.24959V6.59959H7.69922Z" fill="#248F59"/>
</svg>
