<svg width="20" height="20" viewBox="0 0 20 20" fill="none" xmlns="http://www.w3.org/2000/svg">
<path d="M5.00033 12.5C4.77931 12.5 4.56735 12.4122 4.41107 12.2559C4.25479 12.0996 4.16699 11.8877 4.16699 11.6667V8.33333C4.16699 8.11232 4.25479 7.90036 4.41107 7.74408C4.56735 7.5878 4.77931 7.5 5.00033 7.5H10.0003V12.5H5.00033Z" fill="#BFD856"/>
<path fill-rule="evenodd" clip-rule="evenodd" d="M15.0003 5H4.16699C3.50395 5 2.86807 5.26339 2.39923 5.73223C1.93038 6.20107 1.66699 6.83696 1.66699 7.5V12.5C1.66699 13.163 1.93038 13.7989 2.39923 14.2678C2.86807 14.7366 3.50395 15 4.16699 15H15.0003C15.6634 15 16.2992 14.7366 16.7681 14.2678C17.2369 13.7989 17.5003 13.163 17.5003 12.5C17.7213 12.5 17.9333 12.4122 18.0896 12.2559C18.2459 12.0996 18.3337 11.8877 18.3337 11.6667V8.33333C18.3337 8.11232 18.2459 7.90036 18.0896 7.74408C17.9333 7.5878 17.7213 7.5 17.5003 7.5C17.5003 6.83696 17.2369 6.20107 16.7681 5.73223C16.2992 5.26339 15.6634 5 15.0003 5ZM15.0003 6.66667H4.16699C3.94598 6.66667 3.73402 6.75446 3.57774 6.91074C3.42146 7.06702 3.33366 7.27899 3.33366 7.5V12.5C3.33366 12.721 3.42146 12.933 3.57774 13.0893C3.73402 13.2455 3.94598 13.3333 4.16699 13.3333H15.0003C15.2213 13.3333 15.4333 13.2455 15.5896 13.0893C15.7459 12.933 15.8337 12.721 15.8337 12.5V7.5C15.8337 7.27899 15.7459 7.06702 15.5896 6.91074C15.4333 6.75446 15.2213 6.66667 15.0003 6.66667Z" fill="#BFD856"/>
</svg>
