<svg width="94" height="42" viewBox="0 0 94 42" fill="none" xmlns="http://www.w3.org/2000/svg">
<path d="M76.3753 41.2327C72.7285 41.2327 69.7722 38.2764 69.7722 34.6295C69.7722 30.9827 72.7285 28.0264 76.3753 28.0264C80.0222 28.0264 82.9785 30.9827 82.9785 34.6295C82.9785 38.2764 80.0222 41.2327 76.3753 41.2327Z" stroke="#0F1111" stroke-miterlimit="10" stroke-linecap="round" stroke-linejoin="round"/>
<path d="M17.2855 41.2327C13.6387 41.2327 10.6823 38.2764 10.6823 34.6295C10.6823 30.9827 13.6387 28.0264 17.2855 28.0264C20.9323 28.0264 23.8887 30.9827 23.8887 34.6295C23.8887 38.2764 20.9323 41.2327 17.2855 41.2327Z" stroke="#0F1111" stroke-miterlimit="10" stroke-linecap="round" stroke-linejoin="round"/>
<path d="M2.04824 26.8417C2.04824 6.01625 3.40274 1.44483 6.95829 1.1062C10.3445 0.767579 24.7361 0.767578 24.7361 0.767578C24.7361 0.767578 47.5932 0.767579 55.5509 1.1062C63.5086 1.44483 66.7255 4.15382 66.7255 4.15382L79.7625 16.0057L90.0906 20.4078C90.0906 20.4078 92.4609 22.2702 92.4609 27.3496C92.4609 32.429 90.9371 34.1221 90.9371 34.1221L84.8419 35.9845C84.8419 35.4766 85.0112 35.138 85.0112 34.63C85.0112 29.72 81.117 25.8258 76.207 25.8258C71.2969 25.8258 67.4027 29.72 67.4027 34.63C67.4027 35.138 67.4027 35.6459 67.572 36.1538H26.7678H25.9213C25.9213 35.6459 26.0906 35.138 26.0906 34.63C26.0906 29.72 22.1964 25.8258 17.2863 25.8258C12.3763 25.8258 8.48211 29.72 8.48211 34.63V34.7993C3.06412 33.9528 1.37099 32.7676 1.37099 32.7676V27.3496L2.04824 26.8417Z" stroke="#0F1111" stroke-miterlimit="10" stroke-linecap="round" stroke-linejoin="round"/>
<path d="M76.3752 39.0318C73.944 39.0318 71.9731 37.0609 71.9731 34.6297C71.9731 32.1984 73.944 30.2275 76.3752 30.2275C78.8064 30.2275 80.7773 32.1984 80.7773 34.6297C80.7773 37.0609 78.8064 39.0318 76.3752 39.0318Z" stroke="#0F1111" stroke-width="0.5" stroke-miterlimit="10" stroke-linecap="round" stroke-linejoin="round"/>
<path d="M80.7773 35.3068C80.7773 35.8147 80.608 36.3227 80.2694 36.6613L77.3911 35.6454L77.2218 35.8147V39.0317H76.5445H75.8673V35.984C75.698 35.984 75.698 35.8147 75.698 35.8147L72.8197 36.8306C72.6504 36.3227 72.481 35.984 72.3117 35.4761L75.19 34.4602C75.19 34.2909 75.19 34.2909 75.3594 34.1216L73.4969 31.5819C73.8355 31.2433 74.1742 30.9047 74.6821 30.7354L76.5445 33.275H76.7139H76.8832L78.7456 30.7354C79.2535 30.9047 79.5922 31.2433 79.9308 31.5819L78.0683 34.1216C78.0683 34.2909 78.0683 34.2909 78.2377 34.4602L80.7773 35.3068Z" stroke="#0F1111" stroke-width="0.5" stroke-miterlimit="10" stroke-linecap="round" stroke-linejoin="round"/>
<path d="M76.3746 36.1531C75.5331 36.1531 74.8508 35.4709 74.8508 34.6293C74.8508 33.7877 75.5331 33.1055 76.3746 33.1055C77.2162 33.1055 77.8984 33.7877 77.8984 34.6293C77.8984 35.4709 77.2162 36.1531 76.3746 36.1531Z" stroke="#0F1111" stroke-width="0.5" stroke-miterlimit="10" stroke-linecap="round" stroke-linejoin="round"/>
<path d="M76.3749 35.1379C76.0944 35.1379 75.8669 34.9105 75.8669 34.63C75.8669 34.3495 76.0944 34.1221 76.3749 34.1221C76.6554 34.1221 76.8828 34.3495 76.8828 34.63C76.8828 34.9105 76.6554 35.1379 76.3749 35.1379Z" stroke="#0F1111" stroke-width="0.5" stroke-miterlimit="10" stroke-linecap="round" stroke-linejoin="round"/>
<path d="M17.2854 39.0318C14.8542 39.0318 12.8833 37.0609 12.8833 34.6297C12.8833 32.1984 14.8542 30.2275 17.2854 30.2275C19.7166 30.2275 21.6875 32.1984 21.6875 34.6297C21.6875 37.0609 19.7166 39.0318 17.2854 39.0318Z" stroke="#0F1111" stroke-width="0.5" stroke-miterlimit="10" stroke-linecap="round" stroke-linejoin="round"/>
<path d="M21.6875 35.3071C21.6875 35.8151 21.5182 36.323 21.1796 36.6616L18.3013 35.6458L18.1319 35.8151V39.032H17.4547H16.7774V35.9844C16.6081 35.9844 16.6081 35.8151 16.6081 35.8151L13.7298 36.831C13.5605 36.323 13.3912 35.9844 13.2219 35.4765L16.1002 34.4606C16.1002 34.2913 16.1002 34.2913 16.2695 34.122L14.4071 31.5823C14.7457 31.2437 15.0843 30.905 15.5923 30.7357L17.1161 33.1061H17.2854H17.4547L19.3171 30.5664C19.8251 30.7357 20.1637 31.0743 20.5023 31.413L18.6399 33.9526C18.6399 34.122 18.6399 34.122 18.8092 34.2913L21.6875 35.3071Z" stroke="#0F1111" stroke-width="0.5" stroke-miterlimit="10" stroke-linecap="round" stroke-linejoin="round"/>
<path d="M17.2848 36.1531C16.4432 36.1531 15.761 35.4709 15.761 34.6293C15.761 33.7877 16.4432 33.1055 17.2848 33.1055C18.1264 33.1055 18.8086 33.7877 18.8086 34.6293C18.8086 35.4709 18.1264 36.1531 17.2848 36.1531Z" stroke="#0F1111" stroke-width="0.5" stroke-miterlimit="10" stroke-linecap="round" stroke-linejoin="round"/>
<path d="M17.285 35.1379C17.0045 35.1379 16.7771 34.9105 16.7771 34.63C16.7771 34.3495 17.0045 34.1221 17.285 34.1221C17.5656 34.1221 17.793 34.3495 17.793 34.63C17.793 34.9105 17.5656 35.1379 17.285 35.1379Z" stroke="#0F1111" stroke-width="0.5" stroke-miterlimit="10" stroke-linecap="round" stroke-linejoin="round"/>
<path d="M8.48217 34.7993C3.06418 33.9528 1.37106 32.7676 1.37106 32.7676V27.3496H12.207C9.83666 28.8734 8.31285 31.5824 8.31285 34.63C8.48216 34.7993 8.48217 34.7993 8.48217 34.7993Z" stroke="#0F1111" stroke-miterlimit="10" stroke-linecap="round" stroke-linejoin="round"/>
<path d="M85.1798 35.9845L91.275 34.1221C91.275 34.1221 92.7988 32.2597 92.7988 27.3496H81.4549C83.8253 28.8734 85.3491 31.5824 85.3491 34.63C85.1798 35.138 85.1798 35.6459 85.1798 35.9845Z" stroke="#0F1111" stroke-miterlimit="10" stroke-linecap="round" stroke-linejoin="round"/>
<path d="M2.04808 25.6562H5.0957V16.6826H2.21739C2.04808 19.053 2.04808 22.1006 2.04808 25.6562Z" stroke="#0F1111" stroke-miterlimit="10" stroke-linecap="round" stroke-linejoin="round"/>
<path d="M92.6289 26.1643H89.9199C89.9199 26.1643 89.9199 23.794 88.904 21.9315L90.7665 21.085C91.4437 21.9315 92.2903 23.4553 92.6289 26.1643Z" stroke="#0F1111" stroke-miterlimit="10" stroke-linecap="round" stroke-linejoin="round"/>
<path d="M66.5554 3.98438H64.5236L76.3755 16.0055H79.7617L66.5554 3.98438Z" stroke="#0F1111" stroke-miterlimit="10" stroke-linecap="round" stroke-linejoin="round"/>
<path d="M66.0469 27.3494H24.7347C22.8723 25.4869 20.3326 24.3018 17.4543 24.3018C14.576 24.3018 12.0363 25.4869 10.1739 27.3494" stroke="#0F1111" stroke-width="0.5" stroke-miterlimit="10" stroke-linecap="round" stroke-linejoin="round"/>
<path d="M66.0478 34.6298C66.0478 28.8732 70.6192 24.3018 76.3758 24.3018C79.2541 24.3018 81.7938 25.4869 83.6562 27.3494" stroke="#0F1111" stroke-width="0.5" stroke-miterlimit="10" stroke-linecap="round" stroke-linejoin="round"/>
<path d="M87.3809 21.0846L51.9946 14.4814" stroke="#0F1111" stroke-width="0.5" stroke-miterlimit="10" stroke-linecap="round" stroke-linejoin="round"/>
<path d="M63.6766 5.00086C63.6766 5.00086 67.9094 9.23367 69.4332 10.7575C70.957 12.2813 70.957 13.9744 70.957 13.9744V25.8263C67.9094 27.6887 65.8777 30.9056 65.8777 34.6305H53.6872C51.6554 24.8104 51.4861 2.7998 51.4861 2.7998C62.3221 2.96912 63.6766 5.00086 63.6766 5.00086Z" stroke="#0F1111" stroke-width="0.5" stroke-miterlimit="10" stroke-linecap="round" stroke-linejoin="round"/>
<path d="M17.2856 25.8262C22.1957 25.8262 26.0898 29.7204 26.0898 34.6304C26.0898 35.1383 26.0898 35.6463 25.9205 36.1542H23.7195C23.8888 35.6463 23.8888 35.1383 23.8888 34.6304C23.8888 30.9055 20.8412 28.0272 17.2856 28.0272C13.5607 28.0272 10.6824 31.0749 10.6824 34.6304V35.1383C9.83588 34.969 9.15863 34.969 8.48138 34.7997V34.6304C8.48138 29.7204 12.3756 25.8262 17.2856 25.8262Z" stroke="#0F1111" stroke-miterlimit="10" stroke-linecap="round" stroke-linejoin="round"/>
<path d="M76.3755 25.8262C81.2855 25.8262 85.1797 29.7204 85.1797 34.6304C85.1797 35.1383 85.1797 35.6463 85.0104 35.9849L84.8411 36.1542H82.8093C82.9786 35.6463 82.9786 35.1383 82.9786 34.6304C82.9786 30.9055 79.931 28.0272 76.3755 28.0272C72.6506 28.0272 69.7723 31.0749 69.7723 34.6304C69.7723 35.1383 69.7723 35.6463 69.9416 36.1542H68.4178H67.5712C67.5712 35.6463 67.4019 35.1383 67.4019 34.6304C67.5712 29.7204 71.4654 25.8262 76.3755 25.8262Z" stroke="#0F1111" stroke-miterlimit="10" stroke-linecap="round" stroke-linejoin="round"/>
<path d="M74.1739 20.5771H75.6978C76.0364 20.5771 76.375 20.9158 76.375 21.2544C76.375 21.593 76.0364 21.9316 75.6978 21.9316H74.1739C73.8353 21.9316 73.4967 21.593 73.4967 21.2544C73.4967 20.9158 73.666 20.5771 74.1739 20.5771Z" stroke="#0F1111" stroke-width="0.5" stroke-miterlimit="10" stroke-linecap="round" stroke-linejoin="round"/>
<path d="M58.5977 17.6992H54.1955V19.223H58.5977V17.6992Z" stroke="#0F1111" stroke-width="0.5" stroke-miterlimit="10" stroke-linecap="round" stroke-linejoin="round"/>
<path d="M66.0469 9.06398V15.8365L55.3802 13.8047C54.195 13.6354 53.1791 12.4502 53.1791 11.265C53.1791 11.265 53.0098 6.18568 53.0098 4.32324C60.9675 4.49255 62.8299 5.84705 62.8299 5.84705C62.8299 5.84705 64.5231 7.54017 66.0469 9.06398Z" stroke="#0F1111" stroke-width="0.5" stroke-miterlimit="10" stroke-linecap="round" stroke-linejoin="round"/>
<path d="M66.0466 15.836V9.06348C67.2318 10.2487 68.2477 11.2645 68.5863 11.6032C69.6022 12.619 69.7715 13.8042 69.7715 13.9735V16.5132L66.0466 15.836Z" stroke="#0F1111" stroke-width="0.5" stroke-miterlimit="10" stroke-linecap="round" stroke-linejoin="round"/>
<path d="M7.80502 19.9C7.80502 21.0852 8.82089 22.101 10.0061 22.101H46.9161C48.1013 22.101 49.1172 21.0852 49.1172 19.9V5.16981C49.1172 3.98462 48.1013 2.96875 46.9161 2.96875H10.0061C8.82089 2.96875 7.80502 3.98462 7.80502 5.16981V19.9Z" stroke="#0F1111" stroke-width="0.5" stroke-miterlimit="10" stroke-linecap="round" stroke-linejoin="round"/>
<path d="M44.5445 32.0902C44.5445 32.4288 44.8832 32.7675 45.2218 32.7675H48.1001C48.4387 32.7675 48.7773 32.4288 48.7773 32.0902V29.8892C48.7773 29.5505 48.4387 29.2119 48.1001 29.2119H45.2218C44.8832 29.2119 44.5445 29.5505 44.5445 29.8892V32.0902Z" stroke="#0F1111" stroke-width="0.5" stroke-miterlimit="10" stroke-linecap="round" stroke-linejoin="round"/>
</svg>
