<svg width="24" height="24" viewBox="0 0 24 24" fill="none" xmlns="http://www.w3.org/2000/svg">
    <path d="M17.4958 14.4915H8.09828C7.89878 14.4915 7.73828 14.331 7.73828 14.1315C7.73828 13.932 7.89878 13.7715 8.09828 13.7715H17.4958C17.6953 13.7715 17.8558 13.932 17.8558 14.1315C17.8558 14.331 17.6938 14.4915 17.4958 14.4915Z" fill="#08C46D"/>
    <path d="M21.4892 14.4919H20.9957C20.7962 14.4919 20.6357 14.3314 20.6357 14.1319C20.6357 13.9324 20.7962 13.7719 20.9957 13.7719H21.4892C22.2122 13.7719 22.8002 13.1839 22.8002 12.4609V11.5174C22.8002 10.9159 22.3922 10.3924 21.8087 10.2454L19.5572 9.67993C19.2017 9.58993 18.8762 9.40543 18.6167 9.14593L15.7667 6.29593C15.5192 6.04843 15.1892 5.91193 14.8397 5.91193H6.82367C6.47267 5.91193 6.14417 6.04843 5.89667 6.29593L3.18017 9.01243C2.93267 9.25993 2.79617 9.58993 2.79617 9.93943V12.4609C2.79617 13.1839 3.38417 13.7719 4.10717 13.7719H4.60067C4.80017 13.7719 4.96067 13.9324 4.96067 14.1319C4.96067 14.3314 4.80017 14.4919 4.60067 14.4919H4.10717C2.98667 14.4919 2.07617 13.5799 2.07617 12.4609V9.93943C2.07617 9.39643 2.28767 8.88643 2.67167 8.50243L5.38817 5.78593C5.77217 5.40193 6.28217 5.19043 6.82517 5.19043H14.8397C15.3827 5.19043 15.8927 5.40193 16.2767 5.78593L19.1267 8.63593C19.2947 8.80393 19.5047 8.92243 19.7342 8.98093L21.9857 9.54643C22.8902 9.77443 23.5217 10.5844 23.5217 11.5159V12.4594C23.5202 13.5814 22.6097 14.4919 21.4892 14.4919Z" fill="#08C46D"/>
    <path d="M4.64034 10.2407C4.38084 10.2407 4.14984 10.0862 4.05084 9.84618C3.95184 9.60618 4.00584 9.33318 4.18884 9.15018L6.34884 6.99018C6.52134 6.81768 6.75234 6.72168 6.99684 6.72168H14.6663C14.9108 6.72168 15.1418 6.81768 15.3143 6.99018L17.4743 9.15018C17.6573 9.33318 17.7113 9.60618 17.6123 9.84618C17.5133 10.0862 17.2808 10.2407 17.0228 10.2407H4.64034ZM4.83684 9.52068H16.8263L14.8058 7.50018C14.7698 7.46268 14.7188 7.44168 14.6663 7.44168H6.99684C6.94434 7.44168 6.89484 7.46268 6.85734 7.50018L4.83684 9.52068Z" fill="#08C46D"/>
    <path d="M8.22719 10.2411C8.02769 10.2411 7.86719 10.0806 7.86719 9.88113V7.08363C7.86719 6.88413 8.02769 6.72363 8.22719 6.72363C8.42669 6.72363 8.58719 6.88413 8.58719 7.08363V9.88263C8.58719 10.0806 8.42669 10.2411 8.22719 10.2411Z" fill="#08C46D"/>
    <path d="M11.2057 10.2411C11.0062 10.2411 10.8457 10.0806 10.8457 9.88113V7.08363C10.8457 6.88413 11.0062 6.72363 11.2057 6.72363C11.4052 6.72363 11.5657 6.88413 11.5657 7.08363V9.88263C11.5657 10.0806 11.4037 10.2411 11.2057 10.2411Z" fill="#08C46D"/>
    <path d="M13.6621 11.468H12.8776C12.6781 11.468 12.5176 11.3075 12.5176 11.108C12.5176 10.9085 12.6781 10.748 12.8776 10.748H13.6621C13.8616 10.748 14.0221 10.9085 14.0221 11.108C14.0221 11.3075 13.8601 11.468 13.6621 11.468Z" fill="#08C46D"/>
    <path d="M9.56637 11.468H8.78188C8.58238 11.468 8.42188 11.3075 8.42188 11.108C8.42188 10.9085 8.58238 10.748 8.78188 10.748H9.56637C9.76587 10.748 9.92637 10.9085 9.92637 11.108C9.92637 11.3075 9.76437 11.468 9.56637 11.468Z" fill="#08C46D"/>
    <path d="M6.34923 16.242C5.18523 16.242 4.24023 15.2955 4.24023 14.133C4.24023 12.9705 5.18673 12.0225 6.34923 12.0225C7.51173 12.0225 8.45823 12.969 8.45823 14.133C8.45823 15.297 7.51173 16.242 6.34923 16.242ZM6.34923 12.7425C5.58273 12.7425 4.95873 13.3665 4.95873 14.133C4.95873 14.8995 5.58273 15.522 6.34923 15.522C7.11573 15.522 7.73973 14.898 7.73973 14.133C7.73823 13.365 7.11573 12.7425 6.34923 12.7425Z" fill="#08C46D"/>
    <path d="M6.34917 15.1544C5.78517 15.1544 5.32617 14.6954 5.32617 14.1314C5.32617 13.5674 5.78517 13.1084 6.34917 13.1084C6.91317 13.1084 7.37217 13.5674 7.37217 14.1314C7.37217 14.6954 6.91317 15.1544 6.34917 15.1544ZM6.34917 13.8284C6.18267 13.8284 6.04617 13.9649 6.04617 14.1314C6.04617 14.2979 6.18267 14.4344 6.34917 14.4344C6.51567 14.4344 6.65217 14.2979 6.65217 14.1314C6.65217 13.9649 6.51567 13.8284 6.34917 13.8284Z" fill="#08C46D"/>
    <path d="M19.2453 16.242C18.0813 16.242 17.1348 15.2955 17.1348 14.133C17.1348 12.9705 18.0813 12.0225 19.2453 12.0225C20.4093 12.0225 21.3558 12.969 21.3558 14.133C21.3558 15.297 20.4093 16.242 19.2453 16.242ZM19.2453 12.7425C18.4788 12.7425 17.8548 13.3665 17.8548 14.133C17.8548 14.8995 18.4788 15.522 19.2453 15.522C20.0118 15.522 20.6358 14.898 20.6358 14.133C20.6358 13.365 20.0118 12.7425 19.2453 12.7425Z" fill="#08C46D"/>
    <path d="M19.2457 15.1544C18.6817 15.1544 18.2227 14.6954 18.2227 14.1314C18.2227 13.5674 18.6817 13.1084 19.2457 13.1084C19.8097 13.1084 20.2687 13.5674 20.2687 14.1314C20.2687 14.4044 20.1622 14.6609 19.9687 14.8544C19.7767 15.0479 19.5187 15.1544 19.2457 15.1544ZM19.2457 13.8284C19.0792 13.8284 18.9427 13.9649 18.9427 14.1314C18.9427 14.2979 19.0792 14.4344 19.2457 14.4344C19.3267 14.4344 19.4032 14.4029 19.4602 14.3459C19.5172 14.2889 19.5487 14.2124 19.5487 14.1314C19.5502 13.9649 19.4137 13.8284 19.2457 13.8284Z" fill="#08C46D"/>
    <path d="M23.1593 12.3001H22.1198C21.9203 12.3001 21.7598 12.1396 21.7598 11.9401C21.7598 11.7406 21.9203 11.5801 22.1198 11.5801H23.1593C23.3588 11.5801 23.5193 11.7406 23.5193 11.9401C23.5193 12.1396 23.3588 12.3001 23.1593 12.3001Z" fill="#08C46D"/>
    <path d="M10.508 17.8568H3.08747C1.65047 17.8568 0.480469 16.6883 0.480469 15.2498V13.3643C0.480469 12.7928 0.661969 12.2513 1.00397 11.7968C1.33547 11.3573 1.80647 11.0273 2.33147 10.8698C2.52197 10.8128 2.72297 10.9193 2.77997 11.1098C2.83697 11.3003 2.73047 11.5013 2.53997 11.5583C1.75097 11.7968 1.20047 12.5393 1.20047 13.3643V15.2498C1.20047 16.2893 2.04647 17.1368 3.08747 17.1368H10.5095C10.709 17.1368 10.8695 17.2973 10.8695 17.4968C10.8695 17.6963 10.7075 17.8568 10.508 17.8568Z" fill="#08C46D"/>
    <path d="M12.7599 18.8106H11.3184C10.6734 18.8106 10.1484 18.2856 10.1484 17.6406V17.3526C10.1484 16.7076 10.6734 16.1826 11.3184 16.1826H12.7599C12.9594 16.1826 13.1199 16.3431 13.1199 16.5426V18.4506C13.1199 18.6486 12.9594 18.8106 12.7599 18.8106ZM11.3184 16.9026C11.0709 16.9026 10.8684 17.1051 10.8684 17.3526V17.6406C10.8684 17.8881 11.0709 18.0906 11.3184 18.0906H12.3999V16.9026H11.3184Z" fill="#08C46D"/>
    <path d="M14.1228 17.2971H12.7623C12.5628 17.2971 12.4023 17.1366 12.4023 16.9371C12.4023 16.7376 12.5628 16.5771 12.7623 16.5771H14.1228C14.3223 16.5771 14.4828 16.7376 14.4828 16.9371C14.4828 17.1366 14.3208 17.2971 14.1228 17.2971Z" fill="#08C46D"/>
    <path d="M14.1228 18.4163H12.7623C12.5628 18.4163 12.4023 18.2558 12.4023 18.0563C12.4023 17.8568 12.5628 17.6963 12.7623 17.6963H14.1228C14.3223 17.6963 14.4828 17.8568 14.4828 18.0563C14.4828 18.2558 14.3208 18.4163 14.1228 18.4163Z" fill="#08C46D"/>
</svg> 