<svg width="25" height="14" viewBox="0 0 25 14" fill="none" xmlns="http://www.w3.org/2000/svg">
<path d="M17.9938 9.49148H8.59633C8.39683 9.49148 8.23633 9.33098 8.23633 9.13148C8.23633 8.93198 8.39683 8.77148 8.59633 8.77148H17.9938C18.1933 8.77148 18.3538 8.93198 18.3538 9.13148C18.3538 9.33098 18.1918 9.49148 17.9938 9.49148Z" fill="#1E1E1E"/>
<path d="M21.9872 9.49144H21.4937C21.2942 9.49144 21.1337 9.33094 21.1337 9.13144C21.1337 8.93194 21.2942 8.77144 21.4937 8.77144H21.9872C22.7102 8.77144 23.2982 8.18344 23.2982 7.46044V6.51694C23.2982 5.91544 22.8902 5.39194 22.3067 5.24494L20.0552 4.67944C19.6997 4.58944 19.3742 4.40494 19.1147 4.14544L16.2647 1.29544C16.0172 1.04794 15.6872 0.911442 15.3377 0.911442H7.32172C6.97072 0.911442 6.64222 1.04794 6.39472 1.29544L3.67822 4.01194C3.43072 4.25944 3.29422 4.58944 3.29422 4.93894V7.46044C3.29422 8.18344 3.88222 8.77144 4.60522 8.77144H5.09872C5.29822 8.77144 5.45872 8.93194 5.45872 9.13144C5.45872 9.33094 5.29822 9.49144 5.09872 9.49144H4.60522C3.48472 9.49144 2.57422 8.57944 2.57422 7.46044V4.93894C2.57422 4.39594 2.78572 3.88594 3.16972 3.50194L5.88622 0.785442C6.27022 0.401442 6.78022 0.189941 7.32322 0.189941H15.3377C15.8807 0.189941 16.3907 0.401442 16.7747 0.785442L19.6247 3.63544C19.7927 3.80344 20.0027 3.92194 20.2322 3.98044L22.4837 4.54594C23.3882 4.77394 24.0197 5.58394 24.0197 6.51544V7.45894C24.0182 8.58094 23.1077 9.49144 21.9872 9.49144Z" fill="#1E1E1E"/>
<path d="M5.13839 5.24068C4.87889 5.24068 4.64789 5.08618 4.54889 4.84618C4.44989 4.60618 4.50389 4.33318 4.68689 4.15018L6.84689 1.99018C7.01939 1.81768 7.25039 1.72168 7.49489 1.72168H15.1644C15.4089 1.72168 15.6399 1.81768 15.8124 1.99018L17.9724 4.15018C18.1554 4.33318 18.2094 4.60618 18.1104 4.84618C18.0114 5.08618 17.7789 5.24068 17.5209 5.24068H5.13839ZM5.33489 4.52068H17.3244L15.3039 2.50018C15.2679 2.46268 15.2169 2.44168 15.1644 2.44168H7.49489C7.44239 2.44168 7.39289 2.46268 7.35539 2.50018L5.33489 4.52068Z" fill="#1E1E1E"/>
<path d="M8.72523 5.24064C8.52573 5.24064 8.36523 5.08014 8.36523 4.88064V2.08314C8.36523 1.88364 8.52573 1.72314 8.72523 1.72314C8.92473 1.72314 9.08523 1.88364 9.08523 2.08314V4.88214C9.08523 5.08014 8.92473 5.24064 8.72523 5.24064Z" fill="#1E1E1E"/>
<path d="M11.7037 5.24064C11.5042 5.24064 11.3438 5.08014 11.3438 4.88064V2.08314C11.3438 1.88364 11.5042 1.72314 11.7037 1.72314C11.9032 1.72314 12.0637 1.88364 12.0637 2.08314V4.88214C12.0637 5.08014 11.9017 5.24064 11.7037 5.24064Z" fill="#1E1E1E"/>
<path d="M14.1601 6.46756H13.3756C13.1761 6.46756 13.0156 6.30706 13.0156 6.10756C13.0156 5.90806 13.1761 5.74756 13.3756 5.74756H14.1601C14.3596 5.74756 14.5201 5.90806 14.5201 6.10756C14.5201 6.30706 14.3581 6.46756 14.1601 6.46756Z" fill="#1E1E1E"/>
<path d="M10.0644 6.46756H9.27992C9.08042 6.46756 8.91992 6.30706 8.91992 6.10756C8.91992 5.90806 9.08042 5.74756 9.27992 5.74756H10.0644C10.2639 5.74756 10.4244 5.90806 10.4244 6.10756C10.4244 6.30706 10.2624 6.46756 10.0644 6.46756Z" fill="#1E1E1E"/>
<path d="M6.84728 11.242C5.68328 11.242 4.73828 10.2955 4.73828 9.13296C4.73828 7.97046 5.68478 7.02246 6.84728 7.02246C8.00978 7.02246 8.95628 7.96896 8.95628 9.13296C8.95628 10.297 8.00978 11.242 6.84728 11.242ZM6.84728 7.74246C6.08078 7.74246 5.45678 8.36646 5.45678 9.13296C5.45678 9.89946 6.08078 10.522 6.84728 10.522C7.61378 10.522 8.23778 9.89796 8.23778 9.13296C8.23628 8.36496 7.61378 7.74246 6.84728 7.74246Z" fill="#1E1E1E"/>
<path d="M6.84722 10.1544C6.28322 10.1544 5.82422 9.6954 5.82422 9.1314C5.82422 8.5674 6.28322 8.1084 6.84722 8.1084C7.41122 8.1084 7.87022 8.5674 7.87022 9.1314C7.87022 9.6954 7.41122 10.1544 6.84722 10.1544ZM6.84722 8.8284C6.68072 8.8284 6.54422 8.9649 6.54422 9.1314C6.54422 9.2979 6.68072 9.4344 6.84722 9.4344C7.01372 9.4344 7.15022 9.2979 7.15022 9.1314C7.15022 8.9649 7.01372 8.8284 6.84722 8.8284Z" fill="#1E1E1E"/>
<path d="M19.7433 11.242C18.5793 11.242 17.6328 10.2955 17.6328 9.13296C17.6328 7.97046 18.5793 7.02246 19.7433 7.02246C20.9073 7.02246 21.8538 7.96896 21.8538 9.13296C21.8538 10.297 20.9073 11.242 19.7433 11.242ZM19.7433 7.74246C18.9768 7.74246 18.3528 8.36646 18.3528 9.13296C18.3528 9.89946 18.9768 10.522 19.7433 10.522C20.5098 10.522 21.1338 9.89796 21.1338 9.13296C21.1338 8.36496 20.5098 7.74246 19.7433 7.74246Z" fill="#1E1E1E"/>
<path d="M19.7437 10.1544C19.1797 10.1544 18.7207 9.6954 18.7207 9.1314C18.7207 8.5674 19.1797 8.1084 19.7437 8.1084C20.3077 8.1084 20.7667 8.5674 20.7667 9.1314C20.7667 9.4044 20.6602 9.6609 20.4667 9.8544C20.2747 10.0479 20.0167 10.1544 19.7437 10.1544ZM19.7437 8.8284C19.5772 8.8284 19.4407 8.9649 19.4407 9.1314C19.4407 9.2979 19.5772 9.4344 19.7437 9.4344C19.8247 9.4344 19.9012 9.4029 19.9582 9.3459C20.0152 9.2889 20.0467 9.2124 20.0467 9.1314C20.0482 8.9649 19.9117 8.8284 19.7437 8.8284Z" fill="#1E1E1E"/>
<path d="M23.6573 7.30008H22.6178C22.4183 7.30008 22.2578 7.13958 22.2578 6.94008C22.2578 6.74058 22.4183 6.58008 22.6178 6.58008H23.6573C23.8568 6.58008 24.0173 6.74058 24.0173 6.94008C24.0173 7.13958 23.8568 7.30008 23.6573 7.30008Z" fill="#1E1E1E"/>
<path d="M11.006 12.8559H3.58552C2.14852 12.8559 0.978516 11.6874 0.978516 10.2489V8.36337C0.978516 7.79187 1.16002 7.25037 1.50202 6.79587C1.83352 6.35637 2.30452 6.02637 2.82952 5.86887C3.02002 5.81187 3.22102 5.91837 3.27802 6.10887C3.33502 6.29937 3.22852 6.50037 3.03802 6.55737C2.24902 6.79587 1.69852 7.53837 1.69852 8.36337V10.2489C1.69852 11.2884 2.54452 12.1359 3.58552 12.1359H11.0075C11.207 12.1359 11.3675 12.2964 11.3675 12.4959C11.3675 12.6954 11.2055 12.8559 11.006 12.8559Z" fill="#1E1E1E"/>
<path d="M13.258 13.8101H11.8165C11.1715 13.8101 10.6465 13.2851 10.6465 12.6401V12.3521C10.6465 11.7071 11.1715 11.1821 11.8165 11.1821H13.258C13.4575 11.1821 13.618 11.3426 13.618 11.5421V13.4501C13.618 13.6481 13.4575 13.8101 13.258 13.8101ZM11.8165 11.9021C11.569 11.9021 11.3665 12.1046 11.3665 12.3521V12.6401C11.3665 12.8876 11.569 13.0901 11.8165 13.0901H12.898V11.9021H11.8165Z" fill="#1E1E1E"/>
<path d="M14.6209 12.2967H13.2604C13.0609 12.2967 12.9004 12.1362 12.9004 11.9367C12.9004 11.7372 13.0609 11.5767 13.2604 11.5767H14.6209C14.8204 11.5767 14.9809 11.7372 14.9809 11.9367C14.9809 12.1362 14.8189 12.2967 14.6209 12.2967Z" fill="#1E1E1E"/>
<path d="M14.6209 13.4158H13.2604C13.0609 13.4158 12.9004 13.2553 12.9004 13.0558C12.9004 12.8563 13.0609 12.6958 13.2604 12.6958H14.6209C14.8204 12.6958 14.9809 12.8563 14.9809 13.0558C14.9809 13.2553 14.8189 13.4158 14.6209 13.4158Z" fill="#1E1E1E"/>
</svg>
