<svg width="22" height="22" viewBox="0 0 22 22" fill="none" xmlns="http://www.w3.org/2000/svg">
<path d="M4.58333 11.0001C4.58333 12.6195 5.11042 14.0327 6.16458 15.2397C7.21875 16.4466 8.54792 17.157 10.1521 17.3709C10.3965 17.4015 10.5991 17.5084 10.7598 17.6918C10.9206 17.8751 11.0006 18.089 11 18.3334C11 18.5932 10.8891 18.807 10.6672 18.9751C10.4454 19.1432 10.1973 19.2119 9.92292 19.1813C7.86042 18.9216 6.14931 18.0163 4.78958 16.4653C3.42986 14.9143 2.75 13.0925 2.75 11.0001C2.75 8.92232 3.42619 7.10823 4.77858 5.55785C6.13097 4.00746 7.83811 3.09446 9.9 2.81885C10.1903 2.78829 10.4463 2.85337 10.6682 3.0141C10.89 3.17482 11.0006 3.39237 11 3.66676C11 3.91121 10.9199 4.12509 10.7598 4.30843C10.5997 4.49176 10.3971 4.59871 10.1521 4.62926C8.54792 4.84315 7.21875 5.55357 6.16458 6.76051C5.11042 7.96746 4.58333 9.38065 4.58333 11.0001ZM15.7437 11.9168H9.16667C8.90694 11.9168 8.68939 11.8288 8.514 11.6528C8.33861 11.4768 8.25061 11.2592 8.25 11.0001C8.24939 10.741 8.33739 10.5234 8.514 10.3474C8.69061 10.1714 8.90817 10.0834 9.16667 10.0834H15.7437L14.025 8.36468C13.8417 8.18134 13.75 7.96379 13.75 7.71201C13.75 7.46023 13.8417 7.24237 14.025 7.05843C14.2083 6.87448 14.4222 6.78282 14.6667 6.78343C14.9111 6.78404 15.125 6.87571 15.3083 7.05843L18.6083 10.3584C18.7917 10.5418 18.8833 10.7557 18.8833 11.0001C18.8833 11.2445 18.7917 11.4584 18.6083 11.6418L15.3083 14.9418C15.125 15.1251 14.9111 15.2131 14.6667 15.2058C14.4222 15.1984 14.2083 15.1028 14.025 14.9188C13.8417 14.7349 13.75 14.521 13.75 14.2772C13.75 14.0333 13.8417 13.8195 14.025 13.6355L15.7437 11.9168Z" fill="#E4712E"/>
</svg>
