<svg width="24" height="24" viewBox="0 0 24 24" fill="none" xmlns="http://www.w3.org/2000/svg">
    <path d="M21.8412 10.7748L17.0453 9.64665L14.4078 5.6904C14.0364 5.1326 13.4143 4.7998 12.7438 4.7998H4.75315C3.89105 4.7998 3.12855 5.3494 2.8559 6.1674L1.8637 9.14355C1.7303 9.54355 1.48185 9.88845 1.14475 10.1412C0.42795 10.6791 0 11.535 0 12.4307V15.5998C0 16.2615 0.5383 16.7998 1.2 16.7998H2.03195C2.2271 18.1543 3.3922 19.1998 4.8 19.1998C6.2078 19.1998 7.3729 18.1543 7.56805 16.7998H16.0319C16.2271 18.1543 17.3922 19.1998 18.8 19.1998C20.2078 19.1998 21.3729 18.1543 21.5681 16.7998H22.8C23.4617 16.7998 24 16.2615 24 15.5998V13.5006C24 12.1947 23.1123 11.074 21.8412 10.7748ZM4.8 18.3998C3.69725 18.3998 2.8 17.5026 2.8 16.3998C2.8 15.2971 3.69725 14.3998 4.8 14.3998C5.90275 14.3998 6.8 15.2971 6.8 16.3998C6.8 17.5026 5.90275 18.3998 4.8 18.3998ZM18.8 18.3998C17.6973 18.3998 16.8 17.5026 16.8 16.3998C16.8 15.2971 17.6973 14.3998 18.8 14.3998C19.9028 14.3998 20.8 15.2971 20.8 16.3998C20.8 17.5026 19.9028 18.3998 18.8 18.3998ZM23.2 15.5998C23.2 15.8205 23.0205 15.9998 22.8 15.9998H21.5681C21.3729 14.6453 20.2078 13.5998 18.8 13.5998C17.3922 13.5998 16.2271 14.6453 16.0319 15.9998H7.56805C7.3729 14.6453 6.2078 13.5998 4.8 13.5998C3.3922 13.5998 2.2271 14.6453 2.03195 15.9998H1.2C0.9795 15.9998 0.8 15.8205 0.8 15.5998V12.4307C0.8 11.7854 1.1084 11.1686 1.6248 10.7811C2.09255 10.4303 2.4375 9.95175 2.62265 9.39665L3.61485 6.4205C3.7783 5.9295 4.23595 5.5998 4.75315 5.5998H12.7438C13.1462 5.5998 13.5192 5.7994 13.7423 6.1342L16.4673 10.2217C16.5235 10.3061 16.6096 10.3659 16.7085 10.3893L21.6581 11.5538C22.5659 11.7674 23.2001 12.5678 23.2001 13.5007V15.5998H23.2Z" fill="#08C46D"/>
    <path d="M19.2004 16H18.4004V16.8H19.2004V16Z" fill="#08C46D"/>
    <path d="M5.20039 16H4.40039V16.8H5.20039V16Z" fill="#08C46D"/>
    <path d="M13.1992 13.9996V7.99961C13.1992 7.77851 13.0201 7.59961 12.7992 7.59961H9.59922C9.37832 7.59961 9.19922 7.77851 9.19922 7.99961V9.20976C8.07962 9.31131 7.19922 10.2543 7.19922 11.3996C7.19922 11.7305 6.93007 11.9996 6.59922 11.9996C6.26837 11.9996 5.99922 11.7305 5.99922 11.3996V9.99961C5.99922 9.89336 5.95702 9.79181 5.88202 9.71681L5.76487 9.59961H6.39922V8.79961H4.79922C4.69687 8.79961 4.59452 8.83866 4.51642 8.91681L3.31642 10.1168C3.24142 10.1918 3.19922 10.2934 3.19922 10.3996V11.1996H3.99922V10.5652L4.79922 9.76521L5.19922 10.1652V11.3996C5.19922 12.1715 5.82737 12.7996 6.59922 12.7996C7.37107 12.7996 7.99922 12.1715 7.99922 11.3996C7.99922 10.6962 8.52257 10.1179 9.19922 10.0198V13.9996H8.39922V14.7996H9.59922H12.7992H13.9992V13.9996H13.1992ZM12.3992 13.9996H9.99922V8.39961H12.3992V13.9996Z" fill="#08C46D"/>
    <path d="M12.0004 9.2002H10.4004V10.0002H12.0004V9.2002Z" fill="#08C46D"/>
</svg>