<svg width="93" height="34" viewBox="0 0 93 34" fill="none" xmlns="http://www.w3.org/2000/svg">
<path d="M19.8402 32.6614C16.1934 32.6614 13.237 29.7051 13.237 26.0583C13.237 22.4114 16.1934 19.4551 19.8402 19.4551C23.487 19.4551 26.4434 22.4114 26.4434 26.0583C26.4434 29.7051 23.487 32.6614 19.8402 32.6614Z" stroke="#0F1111" stroke-miterlimit="10" stroke-linecap="round" stroke-linejoin="round"/>
<path d="M75.8832 32.6614C72.2363 32.6614 69.28 29.7051 69.28 26.0583C69.28 22.4114 72.2363 19.4551 75.8832 19.4551C79.53 19.4551 82.4863 22.4114 82.4863 26.0583C82.4863 29.7051 79.53 32.6614 75.8832 32.6614Z" stroke="#0F1111" stroke-miterlimit="10" stroke-linecap="round" stroke-linejoin="round"/>
<path d="M2.57071 16.9154C2.57071 10.9894 1.72415 10.1429 1.72415 10.1429L2.06277 9.63494C4.09452 9.97356 10.867 9.29631 10.867 9.29631C10.867 9.29631 16.7929 5.06351 22.7189 3.03177C28.6448 1.00002 41.0046 0.492084 47.7771 2.01589C54.5495 3.5397 65.3855 10.9894 65.3855 10.9894C77.0681 10.4815 87.3961 13.8677 88.9199 14.7143C90.2744 15.5609 90.2744 17.4233 90.2744 18.7778C90.2744 20.1323 91.6289 20.3016 91.6289 20.3016V23.1799H90.2744V25.2117L91.2903 25.5503V27.0741L84.3485 27.2434C84.3485 26.9048 84.3485 26.5662 84.3485 26.2275C84.3485 21.4868 80.6236 17.7619 75.8829 17.7619C71.1421 17.7619 67.4173 21.4868 67.4173 26.2275C67.4173 26.7355 67.4173 27.0741 67.5866 27.582H28.1368C28.1368 27.0741 28.3062 26.7355 28.3062 26.2275C28.3062 21.4868 24.5813 17.7619 19.8406 17.7619C15.0998 17.7619 11.3749 21.4868 11.3749 26.2275V26.7355L1.72415 25.0423L0.538962 23.3492V18.4392C2.23208 18.2699 2.57071 16.9154 2.57071 16.9154Z" stroke="#0F1111" stroke-miterlimit="10" stroke-linecap="round" stroke-linejoin="round"/>
<path d="M11.375 26.566L1.72418 24.8728L0.538998 23.1797V18.2697C2.23212 18.2697 2.74005 17.0845 2.74005 17.0845C2.74005 16.9152 2.74005 16.5765 2.74005 16.4072C3.75593 16.4072 5.78768 16.5765 7.98874 16.7459C11.2057 17.0845 15.0998 17.4231 16.793 18.439C13.576 19.6242 11.375 22.6718 11.375 26.3966C11.375 26.2273 11.375 26.3966 11.375 26.566Z" stroke="#0F1111" stroke-miterlimit="10" stroke-linecap="round" stroke-linejoin="round"/>
<path d="M84.3485 27.2432L91.2903 27.0739V25.5501L90.2744 25.2114V23.1797H91.6289V20.4707H82.1474C83.5019 21.9945 84.3485 24.0263 84.3485 26.2273V27.2432Z" stroke="#0F1111" stroke-miterlimit="10" stroke-linecap="round" stroke-linejoin="round"/>
<path d="M90.2734 23.1797H85.8713" stroke="#0F1111" stroke-miterlimit="10" stroke-linecap="round" stroke-linejoin="round"/>
<path d="M82.1467 16.5764C82.1467 16.5764 84.5171 15.5605 86.0409 15.5605C87.5647 15.5605 89.2578 15.7299 88.9192 18.7775H87.734C87.734 18.6082 86.8874 20.132 82.1467 16.5764Z" stroke="#0F1111" stroke-miterlimit="10" stroke-linecap="round" stroke-linejoin="round"/>
<path d="M60.1367 11.4972C56.0732 11.3279 45.2373 10.9893 36.2637 10.6507L34.0626 3.03162C39.9886 2.86231 47.4383 3.70887 51.3325 6.07924C54.888 7.94167 58.105 9.97342 60.1367 11.4972Z" stroke="#0F1111" stroke-width="0.5" stroke-miterlimit="10" stroke-linecap="round" stroke-linejoin="round"/>
<path d="M7.81926 16.5766C5.6182 16.4072 3.58646 16.2379 2.57058 16.2379C2.57058 14.7141 2.57059 13.6982 2.40127 12.8517C3.24783 12.6824 4.60233 12.3438 6.12614 12.3438C8.32719 12.3438 10.0203 13.1903 9.34307 14.3755L7.81926 16.5766Z" stroke="#0F1111" stroke-miterlimit="10" stroke-linecap="round" stroke-linejoin="round"/>
<path d="M10.8664 9.29641C10.8664 9.29641 16.623 5.23292 22.3796 3.20117C22.3796 3.20117 22.7182 3.37048 23.2261 3.53979C23.7341 3.70911 23.5648 4.21704 22.8875 4.55567L14.7605 9.1271C14.0833 9.46572 13.0674 9.63503 12.3902 9.63503L10.8664 9.29641Z" stroke="#0F1111" stroke-miterlimit="10" stroke-linecap="round" stroke-linejoin="round"/>
<path d="M51.5018 3.37012C51.5018 3.37012 51.3325 3.53943 51.1632 3.70874C50.9938 3.87805 51.3325 4.38599 52.0097 4.72462L61.8298 10.8199C62.3378 11.1585 63.5229 11.4971 64.2002 11.3278L65.5547 11.1585C65.5547 11.1585 57.9356 5.9098 51.5018 3.37012Z" stroke="#0F1111" stroke-miterlimit="10" stroke-linecap="round" stroke-linejoin="round"/>
<path d="M76.2207 13.8674L16.1149 11.4971" stroke="#0F1111" stroke-width="0.5" stroke-miterlimit="10" stroke-linecap="round" stroke-linejoin="round"/>
<path d="M88.4121 25.7194C88.4121 25.7194 86.5497 25.7194 86.5497 23.1797" stroke="#0F1111" stroke-miterlimit="10" stroke-linecap="round" stroke-linejoin="round"/>
<path d="M62.6761 13.3595C63.0148 19.9627 62.6761 23.0103 62.3375 24.5341C62.6761 23.1796 63.0148 19.9627 62.6761 13.3595ZM62.6761 13.3595C62.6761 13.3595 61.6603 12.6823 60.1365 11.4971" stroke="#0F1111" stroke-width="0.5" stroke-miterlimit="10" stroke-linecap="round" stroke-linejoin="round"/>
<path d="M37.6191 24.3647C36.9419 22.3329 35.4181 17.4229 35.0795 12.3435L36.2646 10.6504" stroke="#0F1111" stroke-width="0.5" stroke-miterlimit="10" stroke-linecap="round" stroke-linejoin="round"/>
<path d="M66.0633 24.1957C66.9099 19.455 70.9734 15.8994 76.0527 15.8994C70.9734 16.0687 66.9099 19.6243 66.0633 24.1957Z" stroke="#0F1111" stroke-width="0.5" stroke-miterlimit="10" stroke-linecap="round" stroke-linejoin="round"/>
<path d="M29.4922 23.5181C28.307 19.2853 24.4128 16.0684 19.6721 16.0684C24.4128 16.0684 28.4763 19.116 29.4922 23.5181Z" stroke="#0F1111" stroke-width="0.5" stroke-miterlimit="10" stroke-linecap="round" stroke-linejoin="round"/>
<path d="M27.7982 23.3496C47.6077 26.0586 62.1686 24.8734 67.7559 24.1962C61.9992 24.7041 47.6077 26.0586 27.7982 23.3496Z" stroke="#0F1111" stroke-miterlimit="10" stroke-linecap="round" stroke-linejoin="round"/>
<path d="M27.1214 4.0481C28.6452 3.37085 31.1849 3.03223 34.0632 3.03223L36.4336 10.6513C29.6611 10.482 23.9045 10.1433 23.3966 10.1433C21.8727 10.1433 21.7034 9.80471 21.0262 8.61953C20.1796 7.77297 22.8886 5.91053 27.1214 4.0481ZM23.3966 9.12747C23.9045 9.12747 26.9521 9.29678 33.0474 9.46609L32.5394 4.38672C30.5077 4.55603 28.8145 4.89466 27.7987 5.23328C23.5659 7.09572 22.55 8.11159 22.2114 8.45021C22.55 9.12746 22.55 9.12747 23.3966 9.12747Z" stroke="#0F1111" stroke-width="0.5" stroke-miterlimit="10" stroke-linecap="round" stroke-linejoin="round"/>
<path d="M33.0469 9.46608C26.9516 9.29677 23.904 9.12746 23.3961 9.12746C22.5495 9.12746 22.5495 9.12746 22.2109 8.45021C22.5495 8.11159 23.5654 7.09571 27.7982 5.23328C28.8141 4.72534 30.5072 4.55603 32.5389 4.38672L33.0469 9.46608Z" stroke="#0F1111" stroke-width="0.5" stroke-miterlimit="10" stroke-linecap="round" stroke-linejoin="round"/>
<path d="M52.1797 10.1431L51.3331 7.26478C51.1638 7.26478 50.9945 7.09547 50.8252 6.92616C47.1003 4.89441 40.3278 4.04785 35.5871 4.04785L37.2802 9.63515C42.1903 9.80446 47.6083 9.97377 52.1797 10.1431Z" stroke="#0F1111" stroke-width="0.5" stroke-miterlimit="10" stroke-linecap="round" stroke-linejoin="round"/>
<path d="M52.1787 10.143L51.3321 7.26465C53.0253 8.28052 54.7184 9.29639 56.2422 10.3123C55.057 10.143 53.7025 10.143 52.1787 10.143Z" stroke="#0F1111" stroke-width="0.5" stroke-miterlimit="10" stroke-linecap="round" stroke-linejoin="round"/>
<path d="M15.9456 16.0689C15.0105 16.0689 14.2524 15.3108 14.2524 14.3757C14.2524 13.4407 15.0105 12.6826 15.9456 12.6826C16.8806 12.6826 17.6387 13.4407 17.6387 14.3757C17.6387 15.3108 16.8806 16.0689 15.9456 16.0689Z" stroke="#0F1111" stroke-width="0.5" stroke-miterlimit="10" stroke-linecap="round" stroke-linejoin="round"/>
<path d="M39.312 16.4082C38.1899 16.4082 37.2803 16.105 37.2803 15.731C37.2803 15.3569 38.1899 15.0537 39.312 15.0537C40.4341 15.0537 41.3438 15.3569 41.3438 15.731C41.3438 16.105 40.4341 16.4082 39.312 16.4082Z" stroke="#0F1111" stroke-width="0.5" stroke-miterlimit="10" stroke-linecap="round" stroke-linejoin="round"/>
<path d="M65.5542 15.0537H66.9087C67.2473 15.0537 67.5859 15.3923 67.5859 15.731C67.5859 16.0696 67.2473 16.4082 66.9087 16.4082H65.5542C65.2156 16.4082 64.8769 16.0696 64.8769 15.731C64.8769 15.3923 65.0463 15.0537 65.5542 15.0537Z" stroke="#0F1111" stroke-width="0.5" stroke-miterlimit="10" stroke-linecap="round" stroke-linejoin="round"/>
<path d="M75.8829 30.9685C73.1739 30.9685 70.9729 28.7675 70.9729 26.0585C70.9729 23.3495 73.1739 21.1484 75.8829 21.1484C78.5919 21.1484 80.793 23.3495 80.793 26.0585C80.793 28.7675 78.5919 30.9685 75.8829 30.9685ZM76.8988 29.9527C77.9147 29.7834 78.7612 29.1061 79.2692 28.2595L76.8988 27.5823V29.9527ZM75.0364 29.9527V27.5823L72.666 28.2595C73.1739 29.1061 74.0205 29.614 75.0364 29.9527ZM73.0046 23.6881C72.4967 24.3654 72.158 25.2119 72.158 26.2278V26.3971L74.5284 25.7199L73.0046 23.6881ZM75.8829 22.1643C75.375 22.1643 74.867 22.3336 74.5284 22.5029L75.8829 24.5347L77.2374 22.5029C76.8988 22.3336 76.3909 22.1643 75.8829 22.1643ZM78.9305 23.6881L77.576 25.7199L79.9464 26.3971V26.2278C79.7771 25.2119 79.4385 24.3654 78.9305 23.6881Z" stroke="#0F1111" stroke-width="0.5" stroke-miterlimit="10" stroke-linecap="round" stroke-linejoin="round"/>
<path d="M19.84 21.3184C22.5489 21.3184 24.75 23.5194 24.75 26.2284C24.75 28.9374 22.5489 31.1385 19.84 31.1385C17.131 31.1385 14.9299 28.9374 14.9299 26.2284C14.9299 23.3501 17.131 21.3184 19.84 21.3184ZM18.8241 22.3342C17.8082 22.5035 16.9616 23.1808 16.4537 24.0274L18.8241 24.7046V22.3342ZM20.8558 22.3342V24.7046L23.2262 24.0274C22.5489 23.1808 21.7024 22.6729 20.8558 22.3342ZM22.8876 28.5988C23.3955 27.9215 23.7341 27.075 23.7341 26.0591V25.8898L21.3638 26.567L22.8876 28.5988ZM19.84 30.1226C20.3479 30.1226 20.8558 29.9533 21.1944 29.784L19.84 27.7522L18.4855 29.784C18.8241 29.9533 19.332 30.1226 19.84 30.1226ZM16.7923 28.5988L18.1468 26.567L15.7765 25.8898V26.0591C15.9458 27.075 16.2844 27.9215 16.7923 28.5988Z" stroke="#0F1111" stroke-width="0.5" stroke-miterlimit="10" stroke-linecap="round" stroke-linejoin="round"/>
<path d="M75.882 26.905C75.4144 26.905 75.0354 26.526 75.0354 26.0585C75.0354 25.5909 75.4144 25.2119 75.882 25.2119C76.3495 25.2119 76.7285 25.5909 76.7285 26.0585C76.7285 26.526 76.3495 26.905 75.882 26.905Z" stroke="#0F1111" stroke-width="0.5" stroke-miterlimit="10" stroke-linecap="round" stroke-linejoin="round"/>
<path d="M19.8409 26.905C19.3734 26.905 18.9944 26.526 18.9944 26.0585C18.9944 25.5909 19.3734 25.2119 19.8409 25.2119C20.3085 25.2119 20.6875 25.5909 20.6875 26.0585C20.6875 26.526 20.3085 26.905 19.8409 26.905Z" stroke="#0F1111" stroke-width="0.5" stroke-miterlimit="10" stroke-linecap="round" stroke-linejoin="round"/>
<path d="M19.841 17.5928C24.5818 17.5928 28.3066 21.3176 28.3066 26.0584C28.3066 26.5663 28.3066 26.9049 28.1373 27.4129H27.968L26.2749 27.2436C26.2749 26.9049 26.4442 26.397 26.4442 26.0584C26.4442 22.5028 23.5659 19.4552 19.841 19.4552C16.2855 19.4552 13.2379 22.3335 13.2379 26.0584V26.7356H11.714H11.3754C11.3754 26.5663 11.3754 26.397 11.3754 26.2277C11.3754 21.487 15.1003 17.5928 19.841 17.5928Z" stroke="#0F1111" stroke-miterlimit="10" stroke-linecap="round" stroke-linejoin="round"/>
<path d="M75.882 17.5928C80.6228 17.5928 84.3477 21.3176 84.3477 26.0584V27.0743H82.3159C82.3159 26.7356 82.4852 26.397 82.4852 26.0584C82.4852 22.5028 79.6069 19.4552 75.882 19.4552C72.3265 19.4552 69.2789 22.3335 69.2789 26.0584C69.2789 26.5663 69.2789 26.9049 69.4482 27.4129H68.0937H67.4164C67.4164 26.9049 67.2471 26.5663 67.2471 26.0584C67.4164 21.487 71.3106 17.5928 75.882 17.5928Z" stroke="#0F1111" stroke-miterlimit="10" stroke-linecap="round" stroke-linejoin="round"/>
</svg>
