<svg width="22" height="22" viewBox="0 0 22 22" fill="none" xmlns="http://www.w3.org/2000/svg">
<path d="M11.0003 11.4583C10.1494 11.4583 9.33337 11.7964 8.73169 12.398C8.13001 12.9997 7.79199 13.8158 7.79199 14.6667C7.79199 15.5176 8.13001 16.3336 8.73169 16.9353C9.33337 17.537 10.1494 17.875 11.0003 17.875C11.8512 17.875 12.6673 17.537 13.269 16.9353C13.8706 16.3336 14.2087 15.5176 14.2087 14.6667C14.2087 13.8158 13.8706 12.9997 13.269 12.398C12.6673 11.7964 11.8512 11.4583 11.0003 11.4583ZM9.62533 14.6667C9.62533 14.302 9.77019 13.9523 10.0281 13.6944C10.2859 13.4365 10.6357 13.2917 11.0003 13.2917C11.365 13.2917 11.7147 13.4365 11.9726 13.6944C12.2305 13.9523 12.3753 14.302 12.3753 14.6667C12.3753 15.0313 12.2305 15.3811 11.9726 15.6389C11.7147 15.8968 11.365 16.0417 11.0003 16.0417C10.6357 16.0417 10.2859 15.8968 10.0281 15.6389C9.77019 15.3811 9.62533 15.0313 9.62533 14.6667Z" fill="#E4712E"/>
<path d="M16.0655 4.68968L13.1514 0.604095L2.4365 9.16393L1.8425 9.15751V9.16668H1.375V20.1667H20.625V9.16668H19.7432L17.9887 4.03426L16.0655 4.68968ZM17.8062 9.16668H8.61392L15.4605 6.83285L16.8557 6.38643L17.8062 9.16668ZM14.2542 5.30751L7.18667 7.71651L12.7838 3.24501L14.2542 5.30751ZM3.20833 16.6549V12.6766C3.59533 12.54 3.94685 12.3185 4.23711 12.0284C4.52738 11.7383 4.74904 11.3869 4.88583 11H17.1142C17.2508 11.3871 17.4725 11.7387 17.7627 12.029C18.053 12.3192 18.4046 12.5408 18.7917 12.6775V16.6558C18.4046 16.7925 18.053 17.0141 17.7627 17.3044C17.4725 17.5947 17.2508 17.9463 17.1142 18.3333H4.88767C4.75034 17.9462 4.5283 17.5946 4.23777 17.3043C3.94724 17.0139 3.59553 16.792 3.20833 16.6549Z" fill="#E4712E"/>
</svg>
