<svg width="20" height="20" viewBox="0 0 20 20" fill="none" xmlns="http://www.w3.org/2000/svg">
<path d="M9.99967 10.4165C9.22613 10.4165 8.48426 10.7238 7.93728 11.2708C7.3903 11.8178 7.08301 12.5596 7.08301 13.3332C7.08301 14.1067 7.3903 14.8486 7.93728 15.3956C8.48426 15.9425 9.22613 16.2498 9.99967 16.2498C10.7732 16.2498 11.5151 15.9425 12.0621 15.3956C12.6091 14.8486 12.9163 14.1067 12.9163 13.3332C12.9163 12.5596 12.6091 11.8178 12.0621 11.2708C11.5151 10.7238 10.7732 10.4165 9.99967 10.4165ZM8.74967 13.3332C8.74967 13.0017 8.88137 12.6837 9.11579 12.4493C9.35021 12.2149 9.66815 12.0832 9.99967 12.0832C10.3312 12.0832 10.6491 12.2149 10.8836 12.4493C11.118 12.6837 11.2497 13.0017 11.2497 13.3332C11.2497 13.6647 11.118 13.9826 10.8836 14.2171C10.6491 14.4515 10.3312 14.5832 9.99967 14.5832C9.66815 14.5832 9.35021 14.4515 9.11579 14.2171C8.88137 13.9826 8.74967 13.6647 8.74967 13.3332Z" fill="#D68251"/>
<path d="M14.605 4.26348L11.9558 0.549316L2.215 8.33098L1.675 8.32515V8.33348H1.25V18.3335H18.75V8.33348H17.9483L16.3533 3.66765L14.605 4.26348ZM16.1875 8.33348H7.83083L14.055 6.21182L15.3233 5.80598L16.1875 8.33348ZM12.9583 4.82515L6.53333 7.01515L11.6217 2.95015L12.9583 4.82515ZM2.91667 15.141V11.5243C3.26848 11.4002 3.58804 11.1988 3.85192 10.9351C4.1158 10.6713 4.31731 10.3519 4.44167 10.0002H15.5583C15.6826 10.352 15.884 10.6717 16.1479 10.9356C16.4118 11.1994 16.7314 11.4009 17.0833 11.5252V15.1418C16.7314 15.2661 16.4118 15.4675 16.1479 15.7314C15.884 15.9953 15.6826 16.3149 15.5583 16.6668H4.44333C4.31849 16.3149 4.11664 15.9953 3.85252 15.7313C3.5884 15.4673 3.26867 15.2656 2.91667 15.141Z" fill="#D68251"/>
</svg>
