<svg width="94" height="34" viewBox="0 0 94 34" fill="none" xmlns="http://www.w3.org/2000/svg">
<path d="M33.031 0.831055C33.031 0.831055 53.6871 1.00037 57.2427 2.01624C60.7982 3.03211 70.1104 9.97391 70.1104 9.97391C73.8353 9.97391 88.2268 11.667 90.2585 14.5453C92.2903 17.4236 92.6289 20.1326 92.6289 23.0109C92.6289 25.8893 88.904 26.0586 88.904 26.0586L85.0099 26.7358H84.1633C84.1633 22.1644 80.4384 18.2702 75.6977 18.2702C71.1263 18.2702 67.2321 21.9951 67.2321 26.7358H35.0628L31.1686 10.8205C31.1686 10.8205 31.1686 5.91042 31.1686 3.37074C31.3379 0.831055 33.031 0.831055 33.031 0.831055Z" stroke="#0F1111" stroke-miterlimit="10" stroke-linecap="round" stroke-linejoin="round"/>
<path d="M92.1211 18.2703L87.719 17.593C87.719 17.593 83.6555 13.8682 85.6872 13.8682C86.3645 13.8682 88.5655 14.3761 90.5973 15.2227C91.4438 16.2385 91.7825 17.2544 92.1211 18.2703Z" stroke="#0F1111" stroke-miterlimit="10" stroke-linecap="round" stroke-linejoin="round"/>
<path d="M87.3802 22.6723C87.7189 21.4871 88.2268 19.7939 88.904 19.7939C89.5813 19.7939 91.1051 19.7939 92.4596 19.7939C92.6289 20.8098 92.6289 21.6564 92.6289 22.6723H87.3802Z" stroke="#0F1111" stroke-miterlimit="10" stroke-linecap="round" stroke-linejoin="round"/>
<path d="M3.23242 20.1326C3.23242 20.1326 3.23242 14.0374 3.23242 12.5136C3.23242 10.8204 3.90967 10.3125 3.90967 10.3125L31.3382 10.8204V10.9897L35.2324 26.9051H32.6927C32.6927 22.3337 28.9679 18.4395 24.2271 18.4395C20.1636 18.4395 16.6081 21.4871 15.9308 25.3813H15.2536L2.38586 24.0268C2.38586 24.0268 1.36999 23.6882 1.36999 22.8416C1.36999 21.8257 1.36999 20.4712 1.36999 20.4712H3.23242V20.1326Z" stroke="#0F1111" stroke-miterlimit="10" stroke-linecap="round" stroke-linejoin="round"/>
<path d="M67.0618 12.683C67.5697 16.7465 66.8924 20.81 65.3686 24.3656H39.4639C38.1094 24.3656 36.5856 23.1804 36.2469 21.8259L33.5379 10.482C33.5379 10.482 33.5379 3.20154 33.5379 3.03223C41.8342 3.03223 54.3633 3.37085 56.5644 4.0481C58.4268 4.55604 62.9983 7.60366 66.5538 9.97403C66.8924 10.9899 66.8924 11.8365 67.0618 12.683Z" stroke="#0F1111" stroke-width="0.5" stroke-miterlimit="10" stroke-linecap="round" stroke-linejoin="round"/>
<path d="M82.8086 13.8678L33.7081 11.3281" stroke="#0F1111" stroke-width="0.5" stroke-miterlimit="10" stroke-linecap="round" stroke-linejoin="round"/>
<path d="M61.9828 11.1596V8.28125C63.168 8.9585 64.3531 9.80506 65.7076 10.8209C65.7076 10.9902 65.7076 11.1596 65.877 11.4982L61.9828 11.1596Z" stroke="#0F1111" stroke-width="0.5" stroke-miterlimit="10" stroke-linecap="round" stroke-linejoin="round"/>
<path d="M47.0829 3.37109L48.9453 24.3658" stroke="#0F1111" stroke-width="0.5" stroke-miterlimit="10" stroke-linecap="round" stroke-linejoin="round"/>
<path d="M46.4062 10.4823L37.7713 9.97439C36.7555 9.97439 35.9089 8.95852 35.9089 7.94264V4.89502C35.9089 4.5564 36.2475 4.21777 36.5861 4.21777C36.5861 4.21777 42.8507 4.38709 46.0676 4.38709L46.4062 10.4823Z" stroke="#0F1111" stroke-width="0.5" stroke-miterlimit="10" stroke-linecap="round" stroke-linejoin="round"/>
<path d="M61.9824 11.1588L49.6226 10.4816C49.284 10.4816 48.9454 10.143 48.9454 9.80434L48.6068 5.23291C48.6068 4.89429 48.7761 4.55566 49.1147 4.55566C49.1147 4.55566 55.5486 4.89429 56.3951 5.23291C57.411 5.40222 59.4427 6.58741 61.9824 8.28053V11.1588Z" stroke="#0F1111" stroke-width="0.5" stroke-miterlimit="10" stroke-linecap="round" stroke-linejoin="round"/>
<path d="M53.8555 13.6992H49.9613V15.0537H53.8555V13.6992Z" stroke="#0F1111" stroke-width="0.5" stroke-miterlimit="10" stroke-linecap="round" stroke-linejoin="round"/>
<path d="M40.3105 13.1914H36.4164V14.5459H40.3105V13.1914Z" stroke="#0F1111" stroke-width="0.5" stroke-miterlimit="10" stroke-linecap="round" stroke-linejoin="round"/>
<path d="M1.37005 20.1328H18.9785C17.4547 21.318 16.2695 23.1804 15.9309 25.2122H15.2537L2.38592 23.8577C2.38592 23.8577 1.37005 23.5191 1.37005 22.6725C1.37005 21.4873 1.37005 20.1328 1.37005 20.1328Z" stroke="#0F1111" stroke-miterlimit="10" stroke-linecap="round" stroke-linejoin="round"/>
<path d="M92.6289 22.6719H83.3167C83.994 23.8571 84.3326 25.2116 84.3326 26.5661H85.0099L88.904 25.8888C88.904 25.8888 92.6289 25.7195 92.6289 22.8412C92.6289 22.8412 92.6289 22.8412 92.6289 22.6719Z" stroke="#0F1111" stroke-miterlimit="10" stroke-linecap="round" stroke-linejoin="round"/>
<path d="M69.9409 15.0537H71.2954C71.634 15.0537 71.9727 15.3923 71.9727 15.731C71.9727 16.0696 71.634 16.4082 71.2954 16.4082H69.9409C69.6023 16.4082 69.2637 16.0696 69.2637 15.731C69.433 15.3923 69.6023 15.0537 69.9409 15.0537Z" stroke="#0F1111" stroke-width="0.5" stroke-miterlimit="10" stroke-linecap="round" stroke-linejoin="round"/>
<path d="M75.8667 15.7305C80.6074 15.7305 84.5016 18.6088 86.0254 22.8416C84.5016 18.6088 80.4381 15.7305 75.8667 15.7305Z" stroke="#0F1111" stroke-width="0.5" stroke-miterlimit="10" stroke-linecap="round" stroke-linejoin="round"/>
<path d="M15.4223 20.1326C17.4541 17.4236 20.671 15.7305 24.2266 15.7305" stroke="#0F1111" stroke-width="0.5" stroke-miterlimit="10" stroke-linecap="round" stroke-linejoin="round"/>
<path d="M25.4125 15.3922C25.4125 15.7308 25.7511 16.0695 26.0897 16.0695H28.6294C28.968 16.0695 29.3066 15.7308 29.3066 15.3922V13.5298C29.3066 13.1912 28.968 12.8525 28.6294 12.8525H26.0897C25.7511 12.8525 25.4125 13.1912 25.4125 13.5298V15.3922Z" stroke="#0F1111" stroke-width="0.5" stroke-miterlimit="10" stroke-linecap="round" stroke-linejoin="round"/>
<path d="M6.44922 20.1331V15.0537C6.44922 14.3765 5.94128 13.6992 5.09472 13.6992H3.23228V20.1331H6.44922Z" stroke="#0F1111" stroke-miterlimit="10" stroke-linecap="round" stroke-linejoin="round"/>
<path d="M75.867 20.3023C72.3115 20.3023 69.4332 23.1806 69.4332 26.7361H67.5707C67.5707 22.1647 71.2956 18.2705 76.0363 18.2705C80.7771 18.2705 84.502 21.9954 84.502 26.7361H82.6395C82.3009 23.1806 79.4226 20.3023 75.867 20.3023Z" stroke="#0F1111" stroke-miterlimit="10" stroke-linecap="round" stroke-linejoin="round"/>
<path d="M24.2264 20.3019C21.0095 20.3019 18.4698 22.5029 17.9619 25.5506L16.0994 25.3812C16.7767 21.4871 20.1629 18.4395 24.3957 18.4395C28.9671 18.4395 32.8613 22.1643 32.8613 26.9051L30.6603 26.5664C30.491 23.0109 27.782 20.3019 24.2264 20.3019Z" stroke="#0F1111" stroke-miterlimit="10" stroke-linecap="round" stroke-linejoin="round"/>
<path d="M75.8669 33.1695C72.3136 33.1695 69.4331 30.2889 69.4331 26.7356C69.4331 23.1823 72.3136 20.3018 75.8669 20.3018C79.4202 20.3018 82.3008 23.1823 82.3008 26.7356C82.3008 30.2889 79.4202 33.1695 75.8669 33.1695Z" stroke="#0F1111" stroke-miterlimit="10" stroke-linecap="round" stroke-linejoin="round"/>
<path d="M75.8675 30.6302C73.7168 30.6302 71.9734 28.8867 71.9734 26.736C71.9734 24.5853 73.7168 22.8418 75.8675 22.8418C78.0182 22.8418 79.7617 24.5853 79.7617 26.736C79.7617 28.8867 78.0182 30.6302 75.8675 30.6302Z" stroke="#0F1111" stroke-width="0.5" stroke-miterlimit="10" stroke-linecap="round" stroke-linejoin="round"/>
<path d="M71.9727 26.0587C71.9727 25.5508 72.1421 25.2122 72.3114 24.8735L74.8511 25.7201L75.0204 25.5508V22.8418C75.1897 22.8418 75.5283 22.8418 75.6976 22.8418C75.8669 22.8418 76.2056 22.8418 76.3749 22.8418V25.5508L76.5442 25.7201L79.2532 24.8735C79.4225 25.2122 79.5918 25.7201 79.5918 26.0587L77.0521 26.9053V27.2439L78.5759 29.445C78.2373 29.7836 77.8987 29.9529 77.5601 30.1222L76.0362 27.9212H75.8669H75.6976L74.1738 30.1222C73.8352 29.9529 73.4966 29.6143 73.1579 29.445L74.6817 27.2439C74.6817 27.2439 74.6817 27.0746 74.6817 26.9053L71.9727 26.0587Z" stroke="#0F1111" stroke-width="0.5" stroke-miterlimit="10" stroke-linecap="round" stroke-linejoin="round"/>
<path d="M75.8662 28.0899C75.1181 28.0899 74.5117 27.4834 74.5117 26.7354C74.5117 25.9873 75.1181 25.3809 75.8662 25.3809C76.6143 25.3809 77.2207 25.9873 77.2207 26.7354C77.2207 27.4834 76.6143 28.0899 75.8662 28.0899Z" stroke="#0F1111" stroke-width="0.5" stroke-miterlimit="10" stroke-linecap="round" stroke-linejoin="round"/>
<path d="M75.8663 20.3018L76.7129 21.1483" stroke="#0F1111" stroke-width="0.5" stroke-miterlimit="10" stroke-linecap="round" stroke-linejoin="round"/>
<path d="M74.8507 32.1533L75.6973 32.9999" stroke="#0F1111" stroke-width="0.5" stroke-miterlimit="10" stroke-linecap="round" stroke-linejoin="round"/>
<path d="M82.3008 26.7354L81.4542 27.5819" stroke="#0F1111" stroke-width="0.5" stroke-miterlimit="10" stroke-linecap="round" stroke-linejoin="round"/>
<path d="M70.2793 25.7197L69.4327 26.5663" stroke="#0F1111" stroke-width="0.5" stroke-miterlimit="10" stroke-linecap="round" stroke-linejoin="round"/>
<path d="M80.4375 22.1641V23.5186" stroke="#0F1111" stroke-width="0.5" stroke-miterlimit="10" stroke-linecap="round" stroke-linejoin="round"/>
<path d="M71.2949 29.9521V31.3066" stroke="#0F1111" stroke-width="0.5" stroke-miterlimit="10" stroke-linecap="round" stroke-linejoin="round"/>
<path d="M80.4375 31.3066H79.083" stroke="#0F1111" stroke-width="0.5" stroke-miterlimit="10" stroke-linecap="round" stroke-linejoin="round"/>
<path d="M72.4805 22.1641H71.126" stroke="#0F1111" stroke-width="0.5" stroke-miterlimit="10" stroke-linecap="round" stroke-linejoin="round"/>
<path d="M78.2382 20.6406L78.7461 21.8258" stroke="#0F1111" stroke-width="0.5" stroke-miterlimit="10" stroke-linecap="round" stroke-linejoin="round"/>
<path d="M72.8202 31.4766L73.3281 32.6617" stroke="#0F1111" stroke-width="0.5" stroke-miterlimit="10" stroke-linecap="round" stroke-linejoin="round"/>
<path d="M81.793 29.1064L80.6078 29.6144" stroke="#0F1111" stroke-width="0.5" stroke-miterlimit="10" stroke-linecap="round" stroke-linejoin="round"/>
<path d="M71.127 23.6885L69.9418 24.1964" stroke="#0F1111" stroke-width="0.5" stroke-miterlimit="10" stroke-linecap="round" stroke-linejoin="round"/>
<path d="M81.793 24.1963L81.285 25.3815" stroke="#0F1111" stroke-width="0.5" stroke-miterlimit="10" stroke-linecap="round" stroke-linejoin="round"/>
<path d="M70.2793 27.9209L69.7714 29.1061" stroke="#0F1111" stroke-width="0.5" stroke-miterlimit="10" stroke-linecap="round" stroke-linejoin="round"/>
<path d="M78.2363 32.6613L77.0511 32.1533" stroke="#0F1111" stroke-width="0.5" stroke-miterlimit="10" stroke-linecap="round" stroke-linejoin="round"/>
<path d="M74.5117 21.1486L73.3265 20.6406" stroke="#0F1111" stroke-width="0.5" stroke-miterlimit="10" stroke-linecap="round" stroke-linejoin="round"/>
<path d="M75.8671 27.2434C75.5865 27.2434 75.3591 27.016 75.3591 26.7355C75.3591 26.4549 75.5865 26.2275 75.8671 26.2275C76.1476 26.2275 76.375 26.4549 76.375 26.7355C76.375 27.016 76.1476 27.2434 75.8671 27.2434Z" stroke="#0F1111" stroke-width="0.5" stroke-miterlimit="10" stroke-linecap="round" stroke-linejoin="round"/>
<path d="M24.2263 33.1695C20.673 33.1695 17.7924 30.2889 17.7924 26.7356C17.7924 23.1823 20.673 20.3018 24.2263 20.3018C27.7796 20.3018 30.6602 23.1823 30.6602 26.7356C30.6602 30.2889 27.7796 33.1695 24.2263 33.1695Z" stroke="#0F1111" stroke-miterlimit="10" stroke-linecap="round" stroke-linejoin="round"/>
<path d="M24.2269 30.6302C22.0762 30.6302 20.3327 28.8867 20.3327 26.736C20.3327 24.5853 22.0762 22.8418 24.2269 22.8418C26.3776 22.8418 28.1211 24.5853 28.1211 26.736C28.1211 28.8867 26.3776 30.6302 24.2269 30.6302Z" stroke="#0F1111" stroke-width="0.5" stroke-miterlimit="10" stroke-linecap="round" stroke-linejoin="round"/>
<path d="M20.3321 26.0587C20.3321 25.5508 20.5014 25.2122 20.6707 24.8735L23.2104 25.7201L23.3797 25.5508V22.8418C23.5491 22.8418 23.8877 22.8418 24.057 22.8418C24.2263 22.8418 24.5649 22.8418 24.7342 22.8418V25.5508L24.9035 25.7201L27.6125 24.8735C27.7819 25.2122 27.9512 25.7201 27.9512 26.0587L25.4115 26.9053V27.2439L26.9353 29.445C26.5967 29.7836 26.258 29.9529 25.9194 30.1222L24.3956 27.9212H24.2263H24.057L22.5332 30.1222C22.1946 29.9529 21.8559 29.6143 21.5173 29.445L23.0411 27.2439C23.0411 27.2439 23.0411 27.0746 23.0411 26.9053L20.3321 26.0587Z" stroke="#0F1111" stroke-width="0.5" stroke-miterlimit="10" stroke-linecap="round" stroke-linejoin="round"/>
<path d="M24.2275 28.0899C23.4795 28.0899 22.873 27.4834 22.873 26.7354C22.873 25.9873 23.4795 25.3809 24.2275 25.3809C24.9756 25.3809 25.582 25.9873 25.582 26.7354C25.582 27.4834 24.9756 28.0899 24.2275 28.0899Z" stroke="#0F1111" stroke-width="0.5" stroke-miterlimit="10" stroke-linecap="round" stroke-linejoin="round"/>
<path d="M24.2257 20.3018L25.0723 21.1483" stroke="#0F1111" stroke-width="0.5" stroke-miterlimit="10" stroke-linecap="round" stroke-linejoin="round"/>
<path d="M23.2101 32.1533L24.0566 32.9999" stroke="#0F1111" stroke-width="0.5" stroke-miterlimit="10" stroke-linecap="round" stroke-linejoin="round"/>
<path d="M30.6602 26.7354L29.8136 27.5819" stroke="#0F1111" stroke-width="0.5" stroke-miterlimit="10" stroke-linecap="round" stroke-linejoin="round"/>
<path d="M18.6387 25.7197L17.7921 26.5663" stroke="#0F1111" stroke-width="0.5" stroke-miterlimit="10" stroke-linecap="round" stroke-linejoin="round"/>
<path d="M28.7969 22.1641V23.5186" stroke="#0F1111" stroke-width="0.5" stroke-miterlimit="10" stroke-linecap="round" stroke-linejoin="round"/>
<path d="M19.6543 29.9521V31.3066" stroke="#0F1111" stroke-width="0.5" stroke-miterlimit="10" stroke-linecap="round" stroke-linejoin="round"/>
<path d="M28.7969 31.3066H27.4424" stroke="#0F1111" stroke-width="0.5" stroke-miterlimit="10" stroke-linecap="round" stroke-linejoin="round"/>
<path d="M21.0098 22.1641H19.6553" stroke="#0F1111" stroke-width="0.5" stroke-miterlimit="10" stroke-linecap="round" stroke-linejoin="round"/>
<path d="M26.5975 20.6406L27.1055 21.8258" stroke="#0F1111" stroke-width="0.5" stroke-miterlimit="10" stroke-linecap="round" stroke-linejoin="round"/>
<path d="M21.1796 31.4766L21.6875 32.6617" stroke="#0F1111" stroke-width="0.5" stroke-miterlimit="10" stroke-linecap="round" stroke-linejoin="round"/>
<path d="M30.1523 29.1064L28.9672 29.6144" stroke="#0F1111" stroke-width="0.5" stroke-miterlimit="10" stroke-linecap="round" stroke-linejoin="round"/>
<path d="M19.4863 23.6885L18.3011 24.1964" stroke="#0F1111" stroke-width="0.5" stroke-miterlimit="10" stroke-linecap="round" stroke-linejoin="round"/>
<path d="M30.1523 24.1963L29.6444 25.3815" stroke="#0F1111" stroke-width="0.5" stroke-miterlimit="10" stroke-linecap="round" stroke-linejoin="round"/>
<path d="M18.8086 27.9209L18.3007 29.1061" stroke="#0F1111" stroke-width="0.5" stroke-miterlimit="10" stroke-linecap="round" stroke-linejoin="round"/>
<path d="M26.5957 32.6613L25.4105 32.1533" stroke="#0F1111" stroke-width="0.5" stroke-miterlimit="10" stroke-linecap="round" stroke-linejoin="round"/>
<path d="M22.8711 21.1486L21.6859 20.6406" stroke="#0F1111" stroke-width="0.5" stroke-miterlimit="10" stroke-linecap="round" stroke-linejoin="round"/>
<path d="M24.2264 27.2434C23.9459 27.2434 23.7185 27.016 23.7185 26.7355C23.7185 26.4549 23.9459 26.2275 24.2264 26.2275C24.507 26.2275 24.7344 26.4549 24.7344 26.7355C24.7344 27.016 24.507 27.2434 24.2264 27.2434Z" stroke="#0F1111" stroke-width="0.5" stroke-miterlimit="10" stroke-linecap="round" stroke-linejoin="round"/>
</svg>
