<svg width="24" height="24" viewBox="0 0 24 24" fill="none" xmlns="http://www.w3.org/2000/svg">
<path d="M8.24325 3.02955C8.50051 3.094 8.72162 3.25801 8.85796 3.48549C8.9943 3.71297 9.03469 3.98529 8.97025 4.24255L4.97025 20.2425C4.94026 20.3719 4.88482 20.4939 4.80716 20.6016C4.7295 20.7093 4.63117 20.8004 4.51792 20.8697C4.40466 20.939 4.27875 20.985 4.14751 21.0051C4.01628 21.0252 3.88236 21.019 3.75356 20.9868C3.62476 20.9546 3.50366 20.8971 3.39733 20.8176C3.29099 20.7381 3.20155 20.6382 3.13422 20.5238C3.06689 20.4094 3.02303 20.2827 3.00517 20.1511C2.98732 20.0196 2.99585 19.8858 3.03025 19.7575L7.03025 3.75755C7.06206 3.63008 7.11867 3.51012 7.19685 3.40454C7.27503 3.29896 7.37326 3.20982 7.4859 3.14221C7.59855 3.0746 7.72342 3.02985 7.85337 3.01052C7.98332 2.99119 8.1158 2.99766 8.24325 3.02955ZM16.9703 3.75655L20.9702 19.7565C21.0047 19.8848 21.0132 20.0186 20.9953 20.1501C20.9775 20.2817 20.9336 20.4084 20.8663 20.5228C20.7989 20.6372 20.7095 20.7371 20.6032 20.8166C20.4968 20.8961 20.3757 20.9536 20.2469 20.9858C20.1181 21.018 19.9842 21.0243 19.853 21.0041C19.7218 20.984 19.5958 20.938 19.4826 20.8687C19.3693 20.7994 19.271 20.7083 19.1933 20.6006C19.1157 20.493 19.0602 20.3709 19.0303 20.2416L15.0303 4.24155C14.9958 4.11332 14.9873 3.97952 15.0052 3.84796C15.023 3.71641 15.0669 3.58972 15.1342 3.47529C15.2016 3.36087 15.291 3.26099 15.3973 3.1815C15.5037 3.102 15.6248 3.04448 15.7536 3.01228C15.8824 2.98008 16.0163 2.97385 16.1475 2.99395C16.2787 3.01406 16.4047 3.06009 16.5179 3.12937C16.6312 3.19865 16.7295 3.28979 16.8072 3.39747C16.8848 3.50515 16.9403 3.62722 16.9703 3.75655ZM12.0003 16.9995C12.2452 16.9996 12.4816 17.0895 12.6646 17.2523C12.8477 17.415 12.9646 17.6393 12.9933 17.8825L13.0003 17.9995V19.9995C13 20.2544 12.9024 20.4996 12.7274 20.6849C12.5524 20.8703 12.3133 20.9818 12.0589 20.9967C11.8044 21.0117 11.5539 20.9289 11.3584 20.7653C11.163 20.6017 11.0374 20.3696 11.0073 20.1166L11.0003 19.9995V17.9995C11.0003 17.7343 11.1056 17.48 11.2931 17.2924C11.4807 17.1049 11.735 16.9995 12.0003 16.9995ZM12.0003 9.99955C12.2655 9.99955 12.5198 10.1049 12.7074 10.2924C12.8949 10.48 13.0003 10.7343 13.0003 10.9995V12.9995C13.0003 13.2648 12.8949 13.5191 12.7074 13.7067C12.5198 13.8942 12.2655 13.9995 12.0003 13.9995C11.735 13.9995 11.4807 13.8942 11.2931 13.7067C11.1056 13.5191 11.0003 13.2648 11.0003 12.9995V10.9995C11.0003 10.7343 11.1056 10.48 11.2931 10.2924C11.4807 10.1049 11.735 9.99955 12.0003 9.99955ZM12.0003 2.99955C12.2452 2.99958 12.4816 3.08951 12.6646 3.25226C12.8477 3.41502 12.9646 3.6393 12.9933 3.88255L13.0003 3.99955V5.99955C13 6.25443 12.9024 6.49958 12.7274 6.68492C12.5524 6.87025 12.3133 6.98178 12.0589 6.99672C11.8044 7.01166 11.5539 6.92887 11.3584 6.76528C11.163 6.60169 11.0374 6.36965 11.0073 6.11655L11.0003 5.99955V3.99955C11.0003 3.73433 11.1056 3.47998 11.2931 3.29244C11.4807 3.10491 11.735 2.99955 12.0003 2.99955Z" fill="#D64A4A"/>
</svg>
