<svg width="94" height="35" viewBox="0 0 94 35" fill="none" xmlns="http://www.w3.org/2000/svg">
<path d="M75.0205 34.5079C71.2801 34.5079 68.248 31.4757 68.248 27.7354C68.248 23.995 71.2801 20.9629 75.0205 20.9629C78.7608 20.9629 81.793 23.995 81.793 27.7354C81.793 31.4757 78.7608 34.5079 75.0205 34.5079Z" stroke="#0F1111" stroke-miterlimit="10" stroke-linecap="round" stroke-linejoin="round"/>
<path d="M20.8408 34.5079C17.1005 34.5079 14.0683 31.4757 14.0683 27.7354C14.0683 23.995 17.1005 20.9629 20.8408 20.9629C24.5811 20.9629 27.6133 23.995 27.6133 27.7354C27.6133 31.4757 24.5811 34.5079 20.8408 34.5079Z" stroke="#0F1111" stroke-miterlimit="10" stroke-linecap="round" stroke-linejoin="round"/>
<path d="M3.23147 17.7459C3.23147 17.7459 3.5701 11.6507 3.5701 10.9734C3.5701 10.1269 4.58597 9.95757 4.58597 9.95757L11.3585 8.94169L22.5331 3.01577C34.0463 0.137459 50.1309 1.83058 53.3479 3.01577C56.5648 4.20095 71.8029 11.82 71.8029 11.82C79.9299 13.5131 87.041 15.7142 89.0727 17.0687C91.1045 18.4232 91.951 21.3015 91.951 21.3015L92.459 21.8094C92.459 25.7036 91.6124 28.074 91.6124 28.074L83.1468 29.7671H82.6389C82.9775 29.2592 83.1468 28.5819 83.1468 27.7353C83.1468 23.3332 79.5913 19.6084 75.0198 19.6084C70.6177 19.6084 66.8928 23.1639 66.8928 27.7353C66.8928 28.4126 67.0622 29.0898 67.2315 29.7671H44.0357H28.7976C28.9669 29.2592 28.9669 28.5819 28.9669 27.7353C28.9669 23.3332 25.4114 19.6084 20.8399 19.6084C16.2685 19.6084 12.713 23.1639 12.713 27.7353V28.2433L5.43253 26.8888C1.87697 26.2115 1.36904 23.5025 1.36904 23.5025V20.2856C3.06216 18.9311 3.23147 17.7459 3.23147 17.7459Z" stroke="#0F1111" stroke-miterlimit="10" stroke-linecap="round" stroke-linejoin="round"/>
<path d="M75.021 32.4756C72.4027 32.4756 70.2802 30.3531 70.2802 27.7349C70.2802 25.1166 72.4027 22.9941 75.021 22.9941C77.6392 22.9941 79.7617 25.1166 79.7617 27.7349C79.7617 30.3531 77.6392 32.4756 75.021 32.4756Z" stroke="#0F1111" stroke-width="0.5" stroke-miterlimit="10" stroke-linecap="round" stroke-linejoin="round"/>
<path d="M70.2802 27.0582C70.2802 26.5503 70.4495 26.0424 70.7882 25.5344L73.8358 26.5503C73.8358 26.5503 74.0051 26.381 74.1744 26.381V23.1641C74.513 23.1641 74.6824 23.1641 75.021 23.1641C75.3596 23.1641 75.5289 23.1641 75.8675 23.1641V26.381C76.0369 26.381 76.0369 26.5503 76.2062 26.5503L79.2538 25.5344C79.4231 26.0424 79.5924 26.5503 79.7617 27.0582L76.7141 28.0741C76.7141 28.2434 76.7141 28.2434 76.5448 28.4127L78.4072 31.1217C78.0686 31.4604 77.5607 31.799 77.0527 31.9683L75.1903 29.2593H75.021H74.8517L72.9892 31.9683C72.4813 31.799 72.1427 31.4604 71.6347 31.1217L73.4972 28.4127C73.4972 28.2434 73.4972 28.2434 73.3279 28.0741L70.2802 27.0582Z" stroke="#0F1111" stroke-width="0.5" stroke-miterlimit="10" stroke-linecap="round" stroke-linejoin="round"/>
<path d="M75.0211 29.2595C74.1795 29.2595 73.4973 28.5773 73.4973 27.7357C73.4973 26.8941 74.1795 26.2119 75.0211 26.2119C75.8627 26.2119 76.5449 26.8941 76.5449 27.7357C76.5449 28.5773 75.8627 29.2595 75.0211 29.2595Z" stroke="#0F1111" stroke-width="0.5" stroke-miterlimit="10" stroke-linecap="round" stroke-linejoin="round"/>
<path d="M75.0214 28.2434C74.7408 28.2434 74.5134 28.016 74.5134 27.7355C74.5134 27.4549 74.7408 27.2275 75.0214 27.2275C75.3019 27.2275 75.5293 27.4549 75.5293 27.7355C75.5293 28.016 75.3019 28.2434 75.0214 28.2434Z" stroke="#0F1111" stroke-width="0.5" stroke-miterlimit="10" stroke-linecap="round" stroke-linejoin="round"/>
<path d="M20.8413 32.4756C18.2231 32.4756 16.1006 30.3531 16.1006 27.7349C16.1006 25.1166 18.2231 22.9941 20.8413 22.9941C23.4595 22.9941 25.582 25.1166 25.582 27.7349C25.582 30.3531 23.4595 32.4756 20.8413 32.4756Z" stroke="#0F1111" stroke-width="0.5" stroke-miterlimit="10" stroke-linecap="round" stroke-linejoin="round"/>
<path d="M16.2685 27.0582C16.2685 26.5503 16.4378 26.0424 16.7765 25.5344L19.8241 26.5503C19.8241 26.5503 19.9934 26.381 20.1627 26.381V23.1641C20.5013 23.1641 20.6706 23.1641 21.0093 23.1641C21.3479 23.1641 21.5172 23.1641 21.8558 23.1641V26.381C22.0251 26.381 22.0251 26.5503 22.1944 26.5503L25.2421 25.5344C25.4114 26.0424 25.5807 26.5503 25.75 27.0582L22.7024 28.0741C22.7024 28.2434 22.7024 28.2434 22.5331 28.4127L24.3955 31.1217C24.0569 31.4604 23.5489 31.799 23.041 31.9683L21.1786 29.2593H21.0093H20.84L18.9775 31.9683C18.4696 31.799 18.131 31.4604 17.623 31.1217L19.4855 28.4127C19.4855 28.2434 19.4855 28.2434 19.3161 28.0741L16.2685 27.0582Z" stroke="#0F1111" stroke-width="0.5" stroke-miterlimit="10" stroke-linecap="round" stroke-linejoin="round"/>
<path d="M20.8414 29.2595C19.9999 29.2595 19.3176 28.5773 19.3176 27.7357C19.3176 26.8941 19.9999 26.2119 20.8414 26.2119C21.683 26.2119 22.3652 26.8941 22.3652 27.7357C22.3652 28.5773 21.683 29.2595 20.8414 29.2595Z" stroke="#0F1111" stroke-width="0.5" stroke-miterlimit="10" stroke-linecap="round" stroke-linejoin="round"/>
<path d="M20.8397 28.2434C20.5592 28.2434 20.3318 28.016 20.3318 27.7355C20.3318 27.4549 20.5592 27.2275 20.8397 27.2275C21.1202 27.2275 21.3477 27.4549 21.3477 27.7355C21.3477 28.016 21.1202 28.2434 20.8397 28.2434Z" stroke="#0F1111" stroke-width="0.5" stroke-miterlimit="10" stroke-linecap="round" stroke-linejoin="round"/>
<path d="M89.582 20.1166H84.164L83.4868 17.9155C83.4868 17.9155 83.4868 17.2383 85.5185 17.2383C87.5503 17.2383 89.582 18.9314 89.582 20.1166Z" stroke="#0F1111" stroke-miterlimit="10" stroke-linecap="round" stroke-linejoin="round"/>
<path d="M61.4746 21.8096H31.6757" stroke="#0F1111" stroke-width="0.5" stroke-miterlimit="10" stroke-linecap="round" stroke-linejoin="round"/>
<path d="M3.2329 17.2381L6.11121 16.7301L6.61914 13.0053L3.57152 11.4814C3.57152 13.0053 3.40221 16.2222 3.2329 17.2381Z" stroke="#0F1111" stroke-miterlimit="10" stroke-linecap="round" stroke-linejoin="round"/>
<path d="M80.4384 21.8096H92.6289C92.6289 25.7038 91.7823 28.0741 91.7823 28.0741L83.3167 29.7672H82.8088C82.9781 29.2593 83.1474 28.5821 83.1474 27.7355C83.1474 25.3651 82.1316 23.3334 80.4384 21.8096Z" stroke="#0F1111" stroke-miterlimit="10" stroke-linecap="round" stroke-linejoin="round"/>
<path d="M12.7142 28.2432C12.7142 28.0739 12.7142 27.9046 12.7142 27.7353C12.7142 24.349 14.9153 21.3014 17.9629 20.1162H1.3703V23.3331C1.3703 23.3331 1.87823 26.0421 5.43379 26.7194L12.7142 28.2432Z" stroke="#0F1111" stroke-miterlimit="10" stroke-linecap="round" stroke-linejoin="round"/>
<path d="M70.4492 15.2061L16.2693 11.1426" stroke="#0F1111" stroke-width="0.5" stroke-miterlimit="10" stroke-linecap="round" stroke-linejoin="round"/>
<path d="M75.0195 19.6084C79.4216 19.6084 83.1465 23.164 83.1465 27.7354C83.1465 28.4126 82.9772 29.0899 82.8079 29.7671H81.4534C81.6227 29.0899 81.792 28.4126 81.792 27.7354C81.792 24.0105 78.7444 20.9629 75.0195 20.9629C71.2946 20.9629 68.247 24.0105 68.247 27.7354C68.247 28.4126 68.4163 29.0899 68.5856 29.7671H67.2311C67.0618 29.0899 66.8925 28.4126 66.8925 27.7354C66.8925 23.3333 70.4481 19.6084 75.0195 19.6084Z" stroke="#0F1111" stroke-miterlimit="10" stroke-linecap="round" stroke-linejoin="round"/>
<path d="M20.8398 19.6084C25.2419 19.6084 28.9668 23.164 28.9668 27.7354C28.9668 28.4126 28.7975 29.0899 28.6282 29.7671H27.2737C27.443 29.0899 27.6123 28.4126 27.6123 27.7354C27.6123 24.0105 24.5647 20.9629 20.8398 20.9629C17.1149 20.9629 14.0673 24.0105 14.0673 27.7354V28.4126L12.7128 28.2433C12.7128 28.074 12.7128 27.9047 12.7128 27.7354C12.7128 23.3333 16.4377 19.6084 20.8398 19.6084Z" stroke="#0F1111" stroke-miterlimit="10" stroke-linecap="round" stroke-linejoin="round"/>
<path d="M83.1465 21.8095C81.2841 19.2698 78.4057 17.746 75.0195 17.746C78.4057 17.5767 81.2841 19.2698 83.1465 21.8095Z" stroke="#0F1111" stroke-width="0.5" stroke-miterlimit="10" stroke-linecap="round" stroke-linejoin="round"/>
<path d="M14.0676 20.2859C18.1311 16.7304 24.2263 16.8997 27.9512 20.6246C24.2263 16.7304 18.1311 16.7304 14.0676 20.2859Z" stroke="#0F1111" stroke-width="0.5" stroke-miterlimit="10" stroke-linecap="round" stroke-linejoin="round"/>
<path d="M41.8338 13.3439C41.8338 13.3439 43.019 19.9471 42.3418 27.2275C42.8497 19.9471 41.8338 13.3439 41.8338 13.3439ZM41.8338 13.3439L40.31 3.35449" stroke="#0F1111" stroke-width="0.5" stroke-miterlimit="10" stroke-linecap="round" stroke-linejoin="round"/>
<path d="M21.8555 19.7782L19.9931 12.8364C19.9931 9.28087 25.2418 5.38669 27.9508 4.37081C30.6598 3.35494 39.9719 3.52425 39.9719 3.52425C54.5328 3.52425 61.136 8.77293 63.6756 10.6354C66.8926 13.0057 66.8926 15.3761 66.8926 18.0851C66.8926 20.7941 64.8608 27.3973 64.8608 27.3973H28.9667C28.628 23.3338 25.5804 20.2862 21.8555 19.7782Z" stroke="#0F1111" stroke-width="0.5" stroke-miterlimit="10" stroke-linecap="round" stroke-linejoin="round"/>
<path d="M12.0361 15.2061C12.0361 15.5447 12.3747 15.8833 12.7134 15.8833H15.4224C15.761 15.8833 16.0996 15.5447 16.0996 15.2061V13.1743C16.0996 12.8357 15.761 12.4971 15.4224 12.4971H12.7134C12.3747 12.4971 12.0361 12.8357 12.0361 13.1743V15.2061Z" stroke="#0F1111" stroke-width="0.5" stroke-miterlimit="10" stroke-linecap="round" stroke-linejoin="round"/>
<path d="M58.9355 12.4973L58.2583 8.43385C55.0414 6.74073 50.1313 5.04761 43.1895 4.70898L44.2054 11.4815L58.9355 12.4973Z" stroke="#0F1111" stroke-width="0.5" stroke-miterlimit="10" stroke-linecap="round" stroke-linejoin="round"/>
<path d="M58.9348 12.4971L58.2575 8.43359C60.2893 9.44947 61.8131 10.4653 62.6597 11.1426L62.9983 11.4812C63.6755 11.9891 64.1835 12.4971 64.6914 13.005L58.9348 12.4971Z" stroke="#0F1111" stroke-width="0.5" stroke-miterlimit="10" stroke-linecap="round" stroke-linejoin="round"/>
<path d="M28.4591 10.1273L27.6125 5.55591C27.7818 5.3866 27.9511 5.3866 28.1204 5.3866C29.6443 4.87866 33.8771 4.54004 37.7712 4.54004L38.7871 10.9739L28.4591 10.1273Z" stroke="#0F1111" stroke-width="0.5" stroke-miterlimit="10" stroke-linecap="round" stroke-linejoin="round"/>
<path d="M27.6124 5.55566L28.459 10.1271L22.3637 9.61916C23.8876 7.92603 26.0886 6.40222 27.6124 5.55566Z" stroke="#0F1111" stroke-width="0.5" stroke-miterlimit="10" stroke-linecap="round" stroke-linejoin="round"/>
<path d="M69.6011 16.8994H70.9556C71.2942 16.8994 71.6328 17.238 71.6328 17.5767C71.6328 17.9153 71.2942 18.2539 70.9556 18.2539H69.6011C69.2624 18.2539 68.9238 17.9153 68.9238 17.5767C68.9238 17.238 69.2624 16.8994 69.6011 16.8994Z" stroke="#0F1111" stroke-width="0.5" stroke-miterlimit="10" stroke-linecap="round" stroke-linejoin="round"/>
<path d="M48.6074 15.5449H44.5439V16.8994H48.6074V15.5449Z" stroke="#0F1111" stroke-width="0.5" stroke-miterlimit="10" stroke-linecap="round" stroke-linejoin="round"/>
<path d="M26.9355 14.1904H22.8721V15.5449H26.9355V14.1904Z" stroke="#0F1111" stroke-width="0.5" stroke-miterlimit="10" stroke-linecap="round" stroke-linejoin="round"/>
</svg>
