<svg width="20" height="20" viewBox="0 0 20 20" fill="none" xmlns="http://www.w3.org/2000/svg">
<path d="M16.9833 7.14144L15.9583 8.68311C16.4526 9.669 16.6946 10.7621 16.6626 11.8645C16.6306 12.967 16.3256 14.0442 15.775 14.9998H4.22498C3.50929 13.7582 3.21273 12.319 3.37926 10.8957C3.5458 9.47229 4.16657 8.14046 5.14955 7.09763C6.13252 6.0548 7.42537 5.35648 8.83643 5.10619C10.2475 4.8559 11.7016 5.06697 12.9833 5.70811L14.525 4.68311C12.9554 3.67662 11.0936 3.22561 9.23739 3.40222C7.38119 3.57883 5.63785 4.37286 4.28622 5.65729C2.9346 6.94171 2.05278 8.64233 1.78183 10.4871C1.51088 12.3319 1.86644 14.2143 2.79165 15.8331C2.93707 16.085 3.14589 16.2945 3.39734 16.4407C3.64879 16.5868 3.93412 16.6647 4.22498 16.6664H15.7666C16.0603 16.6676 16.3491 16.5911 16.6037 16.4448C16.8584 16.2985 17.0698 16.0874 17.2166 15.8331C17.9845 14.503 18.3698 12.9867 18.3301 11.4514C18.2904 9.91614 17.8272 8.42171 16.9916 7.13311L16.9833 7.14144Z" fill="#AB89D8"/>
<path d="M8.82475 12.8416C8.97954 12.9966 9.16335 13.1195 9.36568 13.2034C9.56801 13.2872 9.78489 13.3304 10.0039 13.3304C10.2229 13.3304 10.4398 13.2872 10.6421 13.2034C10.8445 13.1195 11.0283 12.9966 11.1831 12.8416L15.8997 5.7666L8.82475 10.4833C8.66979 10.6381 8.54686 10.8219 8.46298 11.0242C8.37911 11.2265 8.33594 11.4434 8.33594 11.6624C8.33594 11.8815 8.37911 12.0983 8.46298 12.3007C8.54686 12.503 8.66979 12.6868 8.82475 12.8416Z" fill="#AB89D8"/>
</svg>
