<svg width="94" height="28" viewBox="0 0 94 28" fill="none" xmlns="http://www.w3.org/2000/svg">
<path d="M75.0206 27.1219C71.5608 27.1219 68.7561 24.3171 68.7561 20.8573C68.7561 17.3975 71.5608 14.5928 75.0206 14.5928C78.4804 14.5928 81.2852 17.3975 81.2852 20.8573C81.2852 24.3171 78.4804 27.1219 75.0206 27.1219Z" stroke="#0F1111" stroke-miterlimit="10" stroke-linecap="round" stroke-linejoin="round"/>
<path d="M18.4698 27.1219C15.01 27.1219 12.2053 24.3171 12.2053 20.8573C12.2053 17.3975 15.01 14.5928 18.4698 14.5928C21.9296 14.5928 24.7344 17.3975 24.7344 20.8573C24.7344 24.3171 21.9296 27.1219 18.4698 27.1219Z" stroke="#0F1111" stroke-miterlimit="10" stroke-linecap="round" stroke-linejoin="round"/>
<path d="M1.53896 11.3758L2.21621 10.0213L1.53896 5.61914L3.90933 6.63501C3.90933 6.63501 7.29558 6.63501 16.2691 6.63501C25.2427 6.63501 32.6924 8.32814 41.8353 9.00538C50.9781 9.68263 56.0575 9.1747 61.1368 9.00538C66.2162 8.66676 72.6501 8.66676 78.9146 10.1906C85.1792 11.7144 88.5654 14.0848 90.4278 15.2699C92.2903 16.4551 92.121 19.1641 92.121 19.1641H91.2744V21.3652L92.6289 21.8731L92.2903 23.0583L82.8088 23.2276C83.1474 22.381 83.1474 21.7038 83.1474 20.8572C83.1474 16.2858 79.4226 12.7303 75.0204 12.7303C70.449 12.7303 66.8935 16.4551 66.8935 20.8572C66.8935 21.7038 67.0628 22.5504 67.2321 23.3969H26.2585C26.5972 22.5504 26.5972 21.7038 26.5972 20.8572C26.5972 16.2858 22.8723 12.7303 18.4702 12.7303C13.8987 12.7303 10.3432 16.4551 10.3432 20.8572C10.3432 21.3652 10.3432 21.8731 10.5125 22.381H9.49663C-0.323471 22.381 1.53896 11.3758 1.53896 11.3758Z" stroke="#0F1111" stroke-miterlimit="10" stroke-linecap="round" stroke-linejoin="round"/>
<path d="M61.8145 8.83597C58.4282 7.31216 52.8409 4.60316 49.4547 3.07935C44.3753 0.708984 39.2959 0.708984 39.2959 0.708984C25.5816 0.708984 13.7298 4.43385 7.97318 6.4656C10.0049 6.4656 12.7139 6.4656 16.4388 6.4656C25.4123 6.4656 32.8621 8.15872 42.0049 8.83597C50.9785 9.68253 56.0578 9.17459 61.1372 9.00528C61.3065 9.00528 61.4758 8.83597 61.8145 8.83597Z" stroke="#0F1111" stroke-miterlimit="10" stroke-linecap="round" stroke-linejoin="round"/>
<path d="M54.5332 9.34416C54.1946 9.17484 54.0253 8.83622 53.6866 8.66691L43.3586 3.24892C43.3586 3.24892 38.4485 1.5558 29.8136 2.57167V7.65103C33.7078 8.15897 37.602 8.66691 41.8348 9.00553C47.2528 9.51347 51.147 9.51347 54.5332 9.34416Z" stroke="#0F1111" stroke-width="0.5" stroke-miterlimit="10" stroke-linecap="round" stroke-linejoin="round"/>
<path d="M57.7516 9.17422L45.3918 2.74036L46.577 2.23242C47.5928 2.57105 48.6087 2.90967 49.6246 3.41761C53.0108 4.94142 58.5981 7.4811 61.9844 9.17422H61.3071C59.9526 9.00491 58.9368 9.00491 57.7516 9.17422Z" stroke="#0F1111" stroke-miterlimit="10" stroke-linecap="round" stroke-linejoin="round"/>
<path d="M26.7661 7.31191C26.7661 5.44948 27.274 2.90979 27.4434 1.72461C27.274 2.90979 26.9354 5.44948 26.7661 7.31191Z" stroke="#0F1111" stroke-miterlimit="10" stroke-linecap="round" stroke-linejoin="round"/>
<path d="M89.582 14.5928C82.4709 14.5928 80.7778 12.2224 80.6085 10.5293C85.0106 11.7145 87.7196 13.4076 89.582 14.5928Z" stroke="#0F1111" stroke-miterlimit="10" stroke-linecap="round" stroke-linejoin="round"/>
<path d="M75.021 16.1162C77.5607 16.1162 79.7617 18.148 79.7617 20.857C79.7617 23.3966 77.73 25.5977 75.021 25.5977C72.4813 25.5977 70.2802 23.5659 70.2802 20.857C70.2802 18.3173 72.4813 16.1162 75.021 16.1162ZM74.0051 17.3014C72.9892 17.4707 72.312 18.148 71.804 18.9945L74.0051 19.6718V17.3014ZM76.0369 17.3014V19.6718L78.2379 18.9945C77.73 18.148 76.8834 17.4707 76.0369 17.3014ZM77.8993 23.2273C78.4072 22.5501 78.7458 21.7035 78.7458 20.857V20.6876L76.5448 21.3649L77.8993 23.2273ZM75.021 24.5818C75.5289 24.5818 76.0369 24.4125 76.3755 24.2432L75.021 22.3808L73.6665 24.2432C74.0051 24.5818 74.513 24.5818 75.021 24.5818ZM72.1427 23.2273L73.4972 21.3649L71.2961 20.6876V20.857C71.2961 21.8728 71.6347 22.5501 72.1427 23.2273Z" stroke="#0F1111" stroke-width="0.5" stroke-miterlimit="10" stroke-linecap="round" stroke-linejoin="round"/>
<path d="M75.02 21.5342C74.646 21.5342 74.3428 21.231 74.3428 20.8569C74.3428 20.4829 74.646 20.1797 75.02 20.1797C75.3941 20.1797 75.6973 20.4829 75.6973 20.8569C75.6973 21.231 75.3941 21.5342 75.02 21.5342Z" stroke="#0F1111" stroke-width="0.5" stroke-miterlimit="10" stroke-linecap="round" stroke-linejoin="round"/>
<path d="M18.4702 16.1162C21.0099 16.1162 23.2109 18.148 23.2109 20.857C23.2109 23.3966 21.1792 25.5977 18.4702 25.5977C15.9305 25.5977 13.7295 23.5659 13.7295 20.857C13.8988 18.3173 15.9305 16.1162 18.4702 16.1162ZM17.6236 17.3014C16.6078 17.4707 15.9305 18.148 15.4226 18.9945L17.6236 19.6718V17.3014ZM19.4861 17.3014V19.6718L21.6871 18.9945C21.1792 18.148 20.3326 17.4707 19.4861 17.3014ZM21.3485 23.2273C21.8564 22.5501 22.1951 21.7035 22.1951 20.857V20.6876L19.994 21.3649L21.3485 23.2273ZM18.4702 24.5818C18.9781 24.5818 19.4861 24.4125 19.8247 24.2432L18.4702 22.3808L17.1157 24.2432C17.6236 24.5818 18.1316 24.5818 18.4702 24.5818ZM15.5919 23.2273L16.9464 21.3649L14.7453 20.6876V20.857C14.7453 21.8728 15.084 22.5501 15.5919 23.2273Z" stroke="#0F1111" stroke-width="0.5" stroke-miterlimit="10" stroke-linecap="round" stroke-linejoin="round"/>
<path d="M18.4712 21.5342C18.0972 21.5342 17.7939 21.231 17.7939 20.8569C17.7939 20.4829 18.0972 20.1797 18.4712 20.1797C18.8452 20.1797 19.1484 20.4829 19.1484 20.8569C19.1484 21.231 18.8452 21.5342 18.4712 21.5342Z" stroke="#0F1111" stroke-width="0.5" stroke-miterlimit="10" stroke-linecap="round" stroke-linejoin="round"/>
<path d="M54.5342 9.34375C58.9364 13.2379 57.2432 20.1797 56.566 22.2115C57.2432 20.0104 58.9364 13.2379 54.5342 9.34375Z" stroke="#0F1111" stroke-width="0.5" stroke-miterlimit="10" stroke-linecap="round" stroke-linejoin="round"/>
<path d="M29.8153 7.65039L28.4608 8.66626C28.4608 8.66626 28.2915 12.7298 28.7994 14.7615M28.7994 14.7615C29.1381 16.2853 30.8312 19.6716 31.6777 21.1954C30.8312 19.6716 29.3074 16.2853 28.7994 14.7615Z" stroke="#0F1111" stroke-width="0.5" stroke-miterlimit="10" stroke-linecap="round" stroke-linejoin="round"/>
<path d="M28.6289 20.8566C28.6289 21.0259 28.6289 21.0259 28.6289 21.1952V20.8566ZM28.6289 20.8566C28.6289 15.2693 24.0575 10.8672 18.6395 10.8672C24.2268 10.8672 28.6289 15.4386 28.6289 20.8566Z" stroke="#0F1111" stroke-width="0.5" stroke-miterlimit="10" stroke-linecap="round" stroke-linejoin="round"/>
<path d="M26.7662 21.1953L58.9355 22.2112" stroke="#0F1111" stroke-width="0.5" stroke-miterlimit="10" stroke-linecap="round" stroke-linejoin="round"/>
<path d="M18.4707 12.7305C23.0421 12.7305 26.5977 16.4553 26.5977 20.8575C26.5977 21.704 26.4283 22.5506 26.259 23.3971H25.7511L24.2273 23.2278C24.5659 22.5506 24.7352 21.704 24.7352 20.8575C24.7352 17.4712 21.8569 14.5929 18.4707 14.5929C15.0844 14.5929 12.2061 17.4712 12.2061 20.8575C12.2061 21.5347 12.3754 22.0426 12.3754 22.5506L10.3437 22.3813C10.1744 21.8733 10.1744 21.3654 10.1744 20.8575C10.3437 16.4553 14.0686 12.7305 18.4707 12.7305Z" stroke="#0F1111" stroke-miterlimit="10" stroke-linecap="round" stroke-linejoin="round"/>
<path d="M75.0195 12.7305C79.5909 12.7305 83.1465 16.4553 83.1465 20.8575C83.1465 21.5347 82.9772 22.3813 82.8079 23.0585H80.7761C81.1147 22.3813 81.1147 21.704 81.1147 20.8575C81.1147 17.4712 78.2364 14.5929 74.8502 14.5929C71.4639 14.5929 68.5856 17.4712 68.5856 20.8575C68.5856 21.704 68.755 22.5506 69.0936 23.3971H67.2311H67.0618C66.7232 22.5506 66.7232 21.704 66.7232 20.8575C66.8925 16.4553 70.4481 12.7305 75.0195 12.7305Z" stroke="#0F1111" stroke-miterlimit="10" stroke-linecap="round" stroke-linejoin="round"/>
<path d="M67.9102 13.7461C65.3705 16.2858 64.5239 20.0106 65.3705 23.3969C64.5239 20.0106 65.3705 16.4551 67.9102 13.7461Z" stroke="#0F1111" stroke-width="0.5" stroke-miterlimit="10" stroke-linecap="round" stroke-linejoin="round"/>
<path d="M8.48082 11.7145C8.48082 12.0531 8.81944 12.3917 9.15807 12.3917H11.6977C12.0364 12.3917 12.375 12.0531 12.375 11.7145V9.85205C12.375 9.51343 12.0364 9.1748 11.6977 9.1748H9.15807C8.81944 9.1748 8.48082 9.51343 8.48082 9.85205V11.7145Z" stroke="#0F1111" stroke-width="0.5" stroke-miterlimit="10" stroke-linecap="round" stroke-linejoin="round"/>
<path d="M46.0684 8.15871L45.5604 5.61903L42.8514 4.26453C42.3435 4.09522 39.6345 3.41797 35.0631 3.41797C33.7086 3.41797 32.1848 3.41797 30.8303 3.58728V6.6349L31.8461 6.80421C35.0631 7.14284 38.4493 7.65077 42.0049 7.9894C43.3594 7.9894 44.7139 8.15871 46.0684 8.15871Z" stroke="#0F1111" stroke-width="0.5" stroke-miterlimit="10" stroke-linecap="round" stroke-linejoin="round"/>
<path d="M46.0672 8.15882L45.5593 5.61914L50.6387 8.32814H50.4694C49.1149 8.32814 47.5911 8.32814 46.0672 8.15882Z" stroke="#0F1111" stroke-width="0.5" stroke-miterlimit="10" stroke-linecap="round" stroke-linejoin="round"/>
<path d="M34.2168 10.1904H30.4919V11.3756H34.2168V10.1904Z" stroke="#0F1111" stroke-width="0.5" stroke-miterlimit="10" stroke-linecap="round" stroke-linejoin="round"/>
<path d="M61.4757 19.5031L65.0312 12.2227H59.9519" stroke="#0F1111" stroke-width="0.5" stroke-miterlimit="10" stroke-linecap="round" stroke-linejoin="round"/>
</svg>
