<svg width="94" height="38" viewBox="0 0 94 38" fill="none" xmlns="http://www.w3.org/2000/svg">
<path d="M1.36965 22.302C3.4014 22.302 3.4014 20.7782 3.4014 20.7782V16.3761C3.4014 9.26495 8.9887 4.18559 8.9887 4.18559L8.65007 3.0004L15.5919 2.15384C27.613 0.460722 45.0522 1.30728 50.8088 2.49247C56.5654 3.67765 68.248 11.6353 68.248 11.6353C77.7294 12.4819 86.195 15.0216 88.7347 15.8681C91.2744 16.7147 92.6289 20.6089 92.6289 25.011C92.6289 29.4131 85.3485 29.921 85.3485 29.921H83.8247C83.8247 29.7517 83.8247 29.7517 83.8247 29.5824C83.8247 25.5189 80.6077 22.302 76.5443 22.302C72.4808 22.302 69.2638 25.5189 69.2638 29.5824V30.2597H67.0628H29.1368H27.7823C27.7823 30.0904 27.7823 29.7517 27.7823 29.5824C27.7823 24.3337 23.5495 20.1009 18.3009 20.1009C13.5601 20.1009 9.49664 23.6565 8.9887 28.3972C7.29558 28.0586 5.94108 27.72 4.9252 27.5507C1.20034 26.3655 1.36965 22.302 1.36965 22.302Z" stroke="#0F1111" stroke-miterlimit="10" stroke-linecap="round" stroke-linejoin="round"/>
<path d="M9.32737 28.397C7.63425 28.0584 6.27975 27.7198 5.26388 27.5504C1.3697 26.3653 1.3697 22.3018 1.3697 22.3018C3.23214 22.3018 3.40145 21.1166 3.40145 20.9473H15.084C12.0364 22.1325 9.666 25.0108 9.32737 28.397Z" stroke="#0F1111" stroke-miterlimit="10" stroke-linecap="round" stroke-linejoin="round"/>
<path d="M86.0257 29.7521C87.8882 29.5828 92.6289 28.5669 92.6289 25.0114C92.6289 23.6569 92.4596 22.3024 92.2903 21.1172H80.9464C83.994 22.641 86.195 25.8579 86.195 29.5828C86.0257 29.5828 86.0257 29.5828 86.0257 29.7521Z" stroke="#0F1111" stroke-miterlimit="10" stroke-linecap="round" stroke-linejoin="round"/>
<path d="M4.92478 19.4235C4.92478 19.4235 4.75547 14.1748 6.10997 14.1748C7.46446 14.1748 11.6973 15.5293 11.6973 16.5452C11.6973 17.561 9.15758 19.4235 7.46446 19.4235C5.77134 19.4235 4.92478 19.4235 4.92478 19.4235Z" stroke="#0F1111" stroke-miterlimit="10" stroke-linecap="round" stroke-linejoin="round"/>
<path d="M89.75 23.1487C89.75 23.1487 90.4273 24.3338 90.258 25.6883C90.258 25.6883 87.8876 25.6883 87.2104 24.1645C86.7024 22.6407 89.75 23.1487 89.75 23.1487Z" stroke="#0F1111" stroke-miterlimit="10" stroke-linecap="round" stroke-linejoin="round"/>
<path d="M86.3636 21.1166C85.6864 20.27 84.5012 19.0848 83.4853 18.2383C83.4853 18.2383 83.6546 16.8838 85.3478 16.8838C86.8716 16.8838 89.0726 18.4076 90.2578 21.1166H86.3636Z" stroke="#0F1111" stroke-miterlimit="10" stroke-linecap="round" stroke-linejoin="round"/>
<path d="M7.29461 11.2968C8.64911 9.09572 10.6809 6.38673 11.866 5.03223C12.0354 4.69361 12.374 4.5243 12.5433 4.18567H12.7126L24.5645 3.67773L15.5909 9.94229C15.5909 9.94229 13.5592 11.1275 10.3422 11.2968C9.32636 11.1275 8.31048 11.1275 7.29461 11.2968Z" stroke="#0F1111" stroke-miterlimit="10" stroke-linecap="round" stroke-linejoin="round"/>
<path d="M12.5449 4.01587C12.3756 4.3545 12.2063 4.52381 11.8677 4.86243C10.6825 6.21693 8.65074 8.92593 7.29625 11.127C6.28037 11.127 5.09519 11.2963 4.24863 11.2963C5.77244 6.89418 8.98937 4.18519 8.98937 4.18519L8.65074 3L12.5449 4.01587Z" stroke="#0F1111" stroke-miterlimit="10" stroke-linecap="round" stroke-linejoin="round"/>
<path d="M6.11106 14.175C6.11106 13.4977 6.619 12.4818 7.29625 11.2967C8.65074 9.0956 10.6825 6.38661 11.8677 5.03211M11.8677 5.03211C12.037 4.69348 12.3756 4.52417 12.5449 4.18555C12.3756 4.52417 12.2063 4.69348 11.8677 5.03211Z" stroke="#0F1111" stroke-miterlimit="10" stroke-linecap="round" stroke-linejoin="round"/>
<path d="M14.9149 11.4658C41.6663 11.8044 72.6504 15.6986 72.6504 15.6986C72.6504 15.6986 41.6663 11.9738 14.9149 11.4658Z" stroke="#0F1111" stroke-width="0.5" stroke-miterlimit="10" stroke-linecap="round" stroke-linejoin="round"/>
<path d="M76.7137 36.8626C72.6929 36.8626 69.4333 33.603 69.4333 29.5822C69.4333 25.5613 72.6929 22.3018 76.7137 22.3018C80.7346 22.3018 83.9941 25.5613 83.9941 29.5822C83.9941 33.603 80.7346 36.8626 76.7137 36.8626Z" stroke="#0F1111" stroke-miterlimit="10" stroke-linecap="round" stroke-linejoin="round"/>
<path d="M76.7131 33.9839C74.2819 33.9839 72.311 32.013 72.311 29.5818C72.311 27.1506 74.2819 25.1797 76.7131 25.1797C79.1443 25.1797 81.1152 27.1506 81.1152 29.5818C81.1152 32.013 79.1443 33.9839 76.7131 33.9839Z" stroke="#0F1111" stroke-width="0.5" stroke-miterlimit="10" stroke-linecap="round" stroke-linejoin="round"/>
<path d="M72.3117 28.9046C72.3117 28.3966 72.481 27.8887 72.8197 27.5501L75.698 28.5659L75.8673 28.3966V25.1797C76.0366 25.1797 76.3752 25.1797 76.5445 25.1797C76.7139 25.1797 77.0525 25.1797 77.2218 25.1797V28.2273C77.3911 28.2273 77.3911 28.3966 77.3911 28.3966L80.2694 27.3807C80.4387 27.8887 80.608 28.2273 80.7773 28.7352L77.899 29.7511C77.899 29.9204 77.899 29.9204 77.7297 30.0897L79.7615 32.4601C79.4228 32.7987 79.0842 33.1374 78.5763 33.3067L76.8832 30.9363H76.7139H76.5445L74.6821 33.3067C74.1742 33.1374 73.8355 32.7987 73.4969 32.4601L75.3594 30.0897C75.3594 29.9204 75.3594 29.9204 75.19 29.7511L72.3117 28.9046Z" stroke="#0F1111" stroke-width="0.5" stroke-miterlimit="10" stroke-linecap="round" stroke-linejoin="round"/>
<path d="M76.7125 31.1062C75.8709 31.1062 75.1887 30.424 75.1887 29.5824C75.1887 28.7408 75.8709 28.0586 76.7125 28.0586C77.5541 28.0586 78.2363 28.7408 78.2363 29.5824C78.2363 30.424 77.5541 31.1062 76.7125 31.1062Z" stroke="#0F1111" stroke-width="0.5" stroke-miterlimit="10" stroke-linecap="round" stroke-linejoin="round"/>
<path d="M76.7126 22.3018L77.7285 23.3176" stroke="#0F1111" stroke-width="0.5" stroke-miterlimit="10" stroke-linecap="round" stroke-linejoin="round"/>
<path d="M75.697 35.6777L76.7129 36.6936" stroke="#0F1111" stroke-width="0.5" stroke-miterlimit="10" stroke-linecap="round" stroke-linejoin="round"/>
<path d="M83.8242 29.582L82.8083 30.5979" stroke="#0F1111" stroke-width="0.5" stroke-miterlimit="10" stroke-linecap="round" stroke-linejoin="round"/>
<path d="M70.4492 28.3975L69.4333 29.4133" stroke="#0F1111" stroke-width="0.5" stroke-miterlimit="10" stroke-linecap="round" stroke-linejoin="round"/>
<path d="M81.793 24.334V25.8578" stroke="#0F1111" stroke-width="0.5" stroke-miterlimit="10" stroke-linecap="round" stroke-linejoin="round"/>
<path d="M71.4648 33.1377V34.6615" stroke="#0F1111" stroke-width="0.5" stroke-miterlimit="10" stroke-linecap="round" stroke-linejoin="round"/>
<path d="M81.793 34.6611H80.2692" stroke="#0F1111" stroke-width="0.5" stroke-miterlimit="10" stroke-linecap="round" stroke-linejoin="round"/>
<path d="M72.9883 24.334H71.4645" stroke="#0F1111" stroke-width="0.5" stroke-miterlimit="10" stroke-linecap="round" stroke-linejoin="round"/>
<path d="M79.4218 22.8096L79.9297 24.1641" stroke="#0F1111" stroke-width="0.5" stroke-miterlimit="10" stroke-linecap="round" stroke-linejoin="round"/>
<path d="M73.326 34.8311L73.834 36.1856" stroke="#0F1111" stroke-width="0.5" stroke-miterlimit="10" stroke-linecap="round" stroke-linejoin="round"/>
<path d="M83.3164 32.291L81.9619 32.799" stroke="#0F1111" stroke-width="0.5" stroke-miterlimit="10" stroke-linecap="round" stroke-linejoin="round"/>
<path d="M71.2949 26.1963L69.9404 26.7042" stroke="#0F1111" stroke-width="0.5" stroke-miterlimit="10" stroke-linecap="round" stroke-linejoin="round"/>
<path d="M83.3164 26.7041L82.8085 28.0586" stroke="#0F1111" stroke-width="0.5" stroke-miterlimit="10" stroke-linecap="round" stroke-linejoin="round"/>
<path d="M70.4492 30.9365L69.9413 32.291" stroke="#0F1111" stroke-width="0.5" stroke-miterlimit="10" stroke-linecap="round" stroke-linejoin="round"/>
<path d="M79.4219 36.1857L78.0674 35.6777" stroke="#0F1111" stroke-width="0.5" stroke-miterlimit="10" stroke-linecap="round" stroke-linejoin="round"/>
<path d="M75.1895 23.3175L73.835 22.8096" stroke="#0F1111" stroke-width="0.5" stroke-miterlimit="10" stroke-linecap="round" stroke-linejoin="round"/>
<path d="M76.7128 30.0901C76.4322 30.0901 76.2048 29.8627 76.2048 29.5822C76.2048 29.3016 76.4322 29.0742 76.7128 29.0742C76.9933 29.0742 77.2207 29.3016 77.2207 29.5822C77.2207 29.8627 76.9933 30.0901 76.7128 30.0901Z" stroke="#0F1111" stroke-width="0.5" stroke-miterlimit="10" stroke-linecap="round" stroke-linejoin="round"/>
<path d="M18.6395 36.8626C14.6186 36.8626 11.3591 33.603 11.3591 29.5822C11.3591 25.5613 14.6186 22.3018 18.6395 22.3018C22.6604 22.3018 25.9199 25.5613 25.9199 29.5822C25.9199 33.603 22.6604 36.8626 18.6395 36.8626Z" stroke="#0F1111" stroke-miterlimit="10" stroke-linecap="round" stroke-linejoin="round"/>
<path d="M18.6389 33.9849C16.2077 33.9849 14.2368 32.014 14.2368 29.5828C14.2368 27.1516 16.2077 25.1807 18.6389 25.1807C21.0701 25.1807 23.041 27.1516 23.041 29.5828C23.041 32.014 21.0701 33.9849 18.6389 33.9849Z" stroke="#0F1111" stroke-width="0.5" stroke-miterlimit="10" stroke-linecap="round" stroke-linejoin="round"/>
<path d="M14.4074 28.9055C14.4074 28.3976 14.5767 27.8897 14.9154 27.551L17.7937 28.5669L17.963 28.3976V25.1807C18.1323 25.1807 18.4709 25.1807 18.6402 25.1807C18.8096 25.1807 19.1482 25.1807 19.3175 25.1807V28.2283C19.4868 28.2283 19.4868 28.3976 19.4868 28.3976L22.3651 27.3817C22.5344 27.8897 22.7037 28.2283 22.873 28.7362L19.9947 29.7521C19.9947 29.9214 19.9947 29.9214 19.8254 30.0907L21.6879 32.4611C21.3492 32.7997 21.0106 33.1383 20.5027 33.3076L18.8096 30.9373H18.6402H18.4709L16.6085 33.3076C16.1006 33.1383 15.7619 32.7997 15.4233 32.4611L17.2857 30.0907C17.2857 29.9214 17.2857 29.9214 17.1164 29.7521L14.4074 28.9055Z" stroke="#0F1111" stroke-width="0.5" stroke-miterlimit="10" stroke-linecap="round" stroke-linejoin="round"/>
<path d="M18.6403 31.1062C17.7987 31.1062 17.1164 30.424 17.1164 29.5824C17.1164 28.7408 17.7987 28.0586 18.6403 28.0586C19.4818 28.0586 20.1641 28.7408 20.1641 29.5824C20.1641 30.424 19.4818 31.1062 18.6403 31.1062Z" stroke="#0F1111" stroke-width="0.5" stroke-miterlimit="10" stroke-linecap="round" stroke-linejoin="round"/>
<path d="M18.6404 22.3018L19.6562 23.3176" stroke="#0F1111" stroke-width="0.5" stroke-miterlimit="10" stroke-linecap="round" stroke-linejoin="round"/>
<path d="M17.6228 35.6777L18.6387 36.6936" stroke="#0F1111" stroke-width="0.5" stroke-miterlimit="10" stroke-linecap="round" stroke-linejoin="round"/>
<path d="M25.9199 29.582L24.904 30.5979" stroke="#0F1111" stroke-width="0.5" stroke-miterlimit="10" stroke-linecap="round" stroke-linejoin="round"/>
<path d="M12.375 28.3975L11.3591 29.4133" stroke="#0F1111" stroke-width="0.5" stroke-miterlimit="10" stroke-linecap="round" stroke-linejoin="round"/>
<path d="M23.7188 24.334V25.8578" stroke="#0F1111" stroke-width="0.5" stroke-miterlimit="10" stroke-linecap="round" stroke-linejoin="round"/>
<path d="M13.5605 33.1377V34.6615" stroke="#0F1111" stroke-width="0.5" stroke-miterlimit="10" stroke-linecap="round" stroke-linejoin="round"/>
<path d="M23.7188 34.6611H22.1949" stroke="#0F1111" stroke-width="0.5" stroke-miterlimit="10" stroke-linecap="round" stroke-linejoin="round"/>
<path d="M14.9141 24.334H13.3903" stroke="#0F1111" stroke-width="0.5" stroke-miterlimit="10" stroke-linecap="round" stroke-linejoin="round"/>
<path d="M21.5174 22.8096L22.0254 24.1641" stroke="#0F1111" stroke-width="0.5" stroke-miterlimit="10" stroke-linecap="round" stroke-linejoin="round"/>
<path d="M15.2538 34.8311L15.7617 36.1856" stroke="#0F1111" stroke-width="0.5" stroke-miterlimit="10" stroke-linecap="round" stroke-linejoin="round"/>
<path d="M25.4121 32.291L24.0576 32.799" stroke="#0F1111" stroke-width="0.5" stroke-miterlimit="10" stroke-linecap="round" stroke-linejoin="round"/>
<path d="M13.3906 26.1963L12.0361 26.7042" stroke="#0F1111" stroke-width="0.5" stroke-miterlimit="10" stroke-linecap="round" stroke-linejoin="round"/>
<path d="M25.4121 26.7041L24.9042 28.0586" stroke="#0F1111" stroke-width="0.5" stroke-miterlimit="10" stroke-linecap="round" stroke-linejoin="round"/>
<path d="M12.5449 30.9365L12.037 32.291" stroke="#0F1111" stroke-width="0.5" stroke-miterlimit="10" stroke-linecap="round" stroke-linejoin="round"/>
<path d="M21.5176 36.1857L20.1631 35.6777" stroke="#0F1111" stroke-width="0.5" stroke-miterlimit="10" stroke-linecap="round" stroke-linejoin="round"/>
<path d="M17.2852 23.3175L15.9307 22.8096" stroke="#0F1111" stroke-width="0.5" stroke-miterlimit="10" stroke-linecap="round" stroke-linejoin="round"/>
<path d="M18.6385 30.0901C18.358 30.0901 18.1306 29.8627 18.1306 29.5822C18.1306 29.3016 18.358 29.0742 18.6385 29.0742C18.9191 29.0742 19.1465 29.3016 19.1465 29.5822C19.1465 29.8627 18.9191 30.0901 18.6385 30.0901Z" stroke="#0F1111" stroke-width="0.5" stroke-miterlimit="10" stroke-linecap="round" stroke-linejoin="round"/>
<path d="M27.7827 27.2119L67.2324 28.2278" stroke="#0F1111" stroke-miterlimit="10" stroke-linecap="round" stroke-linejoin="round"/>
<path d="M42.1735 18.5771C42.5121 22.4713 42.0042 25.6882 41.6655 27.5506C42.0042 25.8575 42.5121 22.4713 42.1735 18.5771ZM42.1735 18.5771C42.0042 16.884 41.6655 14.8522 41.3269 12.6512M42.1735 18.5771C41.8349 16.884 41.6655 14.8522 41.3269 12.6512M41.3269 12.6512C40.819 8.75698 40.3111 4.52418 39.9724 2.83105C40.1417 4.52418 40.819 8.58767 41.3269 12.6512Z" stroke="#0F1111" stroke-width="0.5" stroke-miterlimit="10" stroke-linecap="round" stroke-linejoin="round"/>
<path d="M27.2746 3L21.6873 9.9418C21.6873 9.9418 21.0101 10.619 20.6715 11.6349C20.3328 12.6508 20.1635 13.836 20.6715 15.1905C21.0101 16.3757 21.8567 18.746 22.8725 21.1164C22.026 18.746 21.1794 16.3757 20.5022 15.1905C19.9942 13.6667 20.1635 12.4815 20.5022 11.6349C20.8408 10.619 21.518 9.9418 21.518 9.9418L27.2746 3ZM27.2746 3C27.2746 3 30.3223 3 39.9731 3M27.2746 3H39.9731M39.9731 3C48.7773 3 60.2905 8.75661 62.9995 14.6825M39.9731 3C48.608 3 60.2905 8.75661 62.9995 14.6825M62.9995 14.6825C63.3381 15.3598 63.5074 16.037 63.5074 16.545M62.9995 14.6825C63.1688 15.1905 63.5074 15.8677 63.5074 16.545M63.5074 16.545C64.0154 21.6243 63.1688 26.3651 62.6609 28.0582C63.1688 26.1958 64.0154 21.455 63.5074 16.545Z" stroke="#0F1111" stroke-width="0.5" stroke-miterlimit="10" stroke-linecap="round" stroke-linejoin="round"/>
<path d="M9.32745 28.3969C9.83538 23.8255 13.8989 20.1006 18.6396 20.1006C23.8883 20.1006 28.1211 24.3334 28.1211 29.5821V30.2593H25.92C25.92 30.09 25.92 29.7514 25.92 29.5821C25.92 25.5186 22.7031 22.3016 18.6396 22.3016C14.9147 22.3016 11.8671 25.1799 11.3592 28.7355C10.6819 28.5662 10.0047 28.3969 9.32745 28.3969Z" stroke="#0F1111" stroke-miterlimit="10" stroke-linecap="round" stroke-linejoin="round"/>
<path d="M76.7138 20.1006C81.9625 20.1006 86.1953 24.3334 86.1953 29.5821V29.7514H85.5181H83.9943C83.9943 29.5821 83.9943 29.5821 83.9943 29.4128C83.9943 25.3493 80.7773 22.1323 76.7138 22.1323C72.6503 22.1323 69.4334 25.3493 69.4334 29.4128V30.09H67.2323C67.2323 29.9207 67.2323 29.5821 67.2323 29.4128C67.2323 24.3334 71.4652 20.1006 76.7138 20.1006Z" stroke="#0F1111" stroke-miterlimit="10" stroke-linecap="round" stroke-linejoin="round"/>
<path d="M56.3965 12.6508V9.60317C52.333 6.89417 46.7457 4.86243 41.8356 4.35449C42.1743 6.21693 42.8515 8.92592 43.5288 11.6349C48.2695 11.9735 52.6716 12.3122 56.3965 12.6508Z" stroke="#0F1111" stroke-width="0.5" stroke-miterlimit="10" stroke-linecap="round" stroke-linejoin="round"/>
<path d="M56.3955 12.6511V9.60352C58.0886 10.6194 59.4431 11.8046 60.459 13.1591C59.2738 12.9898 57.9193 12.8204 56.3955 12.6511Z" stroke="#0F1111" stroke-width="0.5" stroke-miterlimit="10" stroke-linecap="round" stroke-linejoin="round"/>
<path d="M27.9519 10.619C31.3381 10.7884 34.8937 10.9577 38.4492 11.2963C38.2799 8.58729 38.2799 6.04761 38.1106 4.35449H27.9519V10.619Z" stroke="#0F1111" stroke-width="0.5" stroke-miterlimit="10" stroke-linecap="round" stroke-linejoin="round"/>
<path d="M27.9512 10.619C26.2581 10.619 24.5649 10.4497 22.8718 10.4497L27.9512 4.35449V10.619Z" stroke="#0F1111" stroke-width="0.5" stroke-miterlimit="10" stroke-linecap="round" stroke-linejoin="round"/>
<path d="M68.248 11.6354L64.5232 12.6513C64.5232 12.6513 59.2745 7.23329 52.8406 4.69361L54.3644 3.67773C60.2904 6.21742 68.248 11.6354 68.248 11.6354Z" stroke="#0F1111" stroke-miterlimit="10" stroke-linecap="round" stroke-linejoin="round"/>
<path d="M67.2325 17.8994H68.7563C69.095 17.8994 69.4336 18.238 69.4336 18.5767C69.4336 18.9153 69.095 19.2539 68.7563 19.2539H67.2325C66.8939 19.2539 66.5553 18.9153 66.5553 18.5767C66.5553 18.238 66.8939 17.8994 67.2325 17.8994Z" stroke="#0F1111" stroke-width="0.5" stroke-miterlimit="10" stroke-linecap="round" stroke-linejoin="round"/>
<path d="M48.4375 15.6992H44.0354V17.223H48.4375V15.6992Z" stroke="#0F1111" stroke-width="0.5" stroke-miterlimit="10" stroke-linecap="round" stroke-linejoin="round"/>
<path d="M28.1211 14.3447H23.719V15.8685H28.1211V14.3447Z" stroke="#0F1111" stroke-width="0.5" stroke-miterlimit="10" stroke-linecap="round" stroke-linejoin="round"/>
<path d="M14.2379 16.8842C14.2379 17.2228 14.5765 17.5614 14.9152 17.5614H17.7935C18.1321 17.5614 18.4707 17.2228 18.4707 16.8842V14.6831C18.4707 14.3445 18.1321 14.0059 17.7935 14.0059H14.9152C14.5765 14.0059 14.2379 14.3445 14.2379 14.6831V16.8842Z" stroke="#0F1111" stroke-width="0.5" stroke-miterlimit="10" stroke-linecap="round" stroke-linejoin="round"/>
</svg>
