<svg width="93" height="33" viewBox="0 0 93 33" fill="none" xmlns="http://www.w3.org/2000/svg">
<path d="M0.877587 12.5133C0.877587 11.4974 2.74002 10.4815 2.74002 10.4815C4.94108 6.92598 9.17389 3.53973 9.17389 3.53973L8.15801 2.69317L21.0257 1.6773C21.0257 1.6773 38.4649 0.83074 46.9305 2.18524C55.3961 3.37042 66.2321 10.9895 66.2321 10.9895C66.2321 10.9895 82.6554 13.6985 86.5495 14.8836C90.613 16.0688 91.6289 19.6244 91.6289 19.6244L91.2903 24.1958C90.613 26.2276 84.5178 26.7355 81.9781 26.7355C81.9781 26.2276 82.1474 25.8889 82.1474 25.381C82.1474 20.4709 78.2532 16.5768 73.3432 16.5768C68.4331 16.5768 64.539 20.4709 64.539 25.381C64.539 25.8889 64.539 26.3969 64.7083 26.7355H27.7982H27.121C27.121 26.2276 27.2903 25.8889 27.2903 25.381C27.2903 20.4709 23.3961 16.5768 18.4861 16.5768C13.7453 16.5768 9.85113 20.3016 9.68182 25.0424C7.31145 24.5344 4.43315 24.0265 3.24796 23.8572C1.0469 23.3493 0.538962 21.3175 0.538962 21.3175C0.538962 21.3175 0.877587 13.3598 0.877587 12.5133Z" stroke="#0F1111" stroke-miterlimit="10" stroke-linecap="round" stroke-linejoin="round"/>
<path d="M73.344 32.4918C69.4166 32.4918 66.2329 29.308 66.2329 25.3806C66.2329 21.4533 69.4166 18.2695 73.344 18.2695C77.2713 18.2695 80.4551 21.4533 80.4551 25.3806C80.4551 29.308 77.2713 32.4918 73.344 32.4918Z" stroke="#0F1111" stroke-miterlimit="10" stroke-linecap="round" stroke-linejoin="round"/>
<path d="M18.3166 32.4918C14.3893 32.4918 11.2055 29.308 11.2055 25.3806C11.2055 21.4533 14.3893 18.2695 18.3166 18.2695C22.244 18.2695 25.4277 21.4533 25.4277 25.3806C25.4277 29.308 22.244 32.4918 18.3166 32.4918Z" stroke="#0F1111" stroke-miterlimit="10" stroke-linecap="round" stroke-linejoin="round"/>
<path d="M81.9781 26.9048C81.9781 26.3969 82.1474 26.0583 82.1474 25.5503C82.1474 23.1799 81.1316 20.9789 79.6077 19.4551L91.6289 19.7937L91.2903 24.3651C90.613 26.3969 84.5178 26.7355 81.9781 26.9048Z" stroke="#0F1111" stroke-miterlimit="10" stroke-linecap="round" stroke-linejoin="round"/>
<path d="M14.2539 17.7617H0.708933C0.539621 19.6242 0.539617 21.3173 0.539617 21.3173C0.539617 21.3173 1.04756 23.349 3.24862 23.857C4.4338 24.0263 7.48142 24.7035 9.68248 25.0421C9.68248 21.8252 11.5449 19.1162 14.2539 17.7617Z" stroke="#0F1111" stroke-miterlimit="10" stroke-linecap="round" stroke-linejoin="round"/>
<path d="M88.75 18.2697L88.0728 17.2538C88.0728 17.2538 86.2103 15.5607 82.9934 15.5607C82.9934 15.5607 81.3003 15.3914 81.8082 16.2379C82.1468 17.0845 83.1627 18.1004 83.1627 18.1004L88.75 18.2697Z" stroke="#0F1111" stroke-miterlimit="10" stroke-linecap="round" stroke-linejoin="round"/>
<path d="M41.8516 11.4972L39.9891 3.03162C38.1267 3.03162 35.7563 2.8623 32.878 2.8623C31.5235 2.8623 29.9997 2.86231 28.6452 3.03162L24.5817 10.6507C29.6611 10.9893 35.7563 11.1586 41.8516 11.4972Z" stroke="#0F1111" stroke-width="0.5" stroke-miterlimit="10" stroke-linecap="round" stroke-linejoin="round"/>
<path d="M39.9889 3.20117C44.0524 3.37048 46.0842 3.70911 46.0842 3.70911C50.4863 4.38636 58.7826 9.80434 61.3223 12.852C55.227 12.344 48.4545 12.0054 42.0207 11.6668L39.9889 3.20117Z" stroke="#0F1111" stroke-width="0.5" stroke-miterlimit="10" stroke-linecap="round" stroke-linejoin="round"/>
<path d="M2.74009 15.73C2.74009 15.73 2.74009 12.5131 3.41734 12.0051C4.09459 11.4972 4.77184 10.9893 4.77184 10.9893H7.31152C7.31152 10.9893 8.66602 11.8358 8.66602 12.3438C8.66602 13.021 4.43321 15.73 2.74009 15.73Z" stroke="#0F1111" stroke-miterlimit="10" stroke-linecap="round" stroke-linejoin="round"/>
<path d="M73.3431 30.7991C70.4648 30.7991 68.0944 28.4287 68.0944 25.5504C68.0944 22.6721 70.4648 20.3018 73.3431 20.3018C76.2214 20.3018 78.5918 22.6721 78.5918 25.5504C78.5918 28.4287 76.2214 30.7991 73.3431 30.7991ZM74.359 29.4446C75.3749 29.106 76.2214 28.5981 76.8987 27.5822L74.359 26.7356V29.4446ZM72.1579 29.4446V26.9049L69.6183 27.7515C70.2955 28.5981 71.1421 29.2753 72.1579 29.4446ZM70.1262 22.8414C69.4489 23.5187 69.1103 24.5346 69.1103 25.5504V25.8891L71.65 24.8732L70.1262 22.8414ZM73.3431 21.1483C72.8352 21.1483 72.3272 21.3176 71.8193 21.4869L73.3431 23.688L74.8669 21.4869C74.359 21.3176 73.8511 21.1483 73.3431 21.1483ZM76.5601 22.8414L75.0362 25.0425L77.5759 25.8891C77.5759 25.7197 77.5759 25.7198 77.5759 25.5504C77.5759 24.3653 77.068 23.5187 76.5601 22.8414Z" stroke="#0F1111" stroke-width="0.5" stroke-miterlimit="10" stroke-linecap="round" stroke-linejoin="round"/>
<path d="M73.3429 26.2273C72.8753 26.2273 72.4963 25.8483 72.4963 25.3807C72.4963 24.9132 72.8753 24.5342 73.3429 24.5342C73.8104 24.5342 74.1895 24.9132 74.1895 25.3807C74.1895 25.8483 73.8104 26.2273 73.3429 26.2273Z" stroke="#0F1111" stroke-width="0.5" stroke-miterlimit="10" stroke-linecap="round" stroke-linejoin="round"/>
<path d="M3.07956 9.97354C3.92612 9.80422 5.44993 9.80422 5.78856 9.29628C6.63512 8.44972 10.5293 4.38623 10.5293 4.38623L8.66686 3.70898C7.48167 4.89417 4.77268 7.26454 3.07956 9.97354Z" stroke="#0F1111" stroke-miterlimit="10" stroke-linecap="round" stroke-linejoin="round"/>
<path d="M52.1798 3.70898V4.72486C57.0898 6.7566 63.1851 11.328 63.1851 11.328L66.0634 10.9894C66.2327 11.1587 59.2909 6.24867 52.1798 3.70898Z" stroke="#0F1111" stroke-miterlimit="10" stroke-linecap="round" stroke-linejoin="round"/>
<path d="M18.317 30.7991C15.4387 30.7991 13.0683 28.4287 13.0683 25.5504C13.0683 22.6721 15.4387 20.3018 18.317 20.3018C21.1953 20.3018 23.5657 22.6721 23.5657 25.5504C23.735 28.4287 21.3646 30.7991 18.317 30.7991ZM19.5022 29.4446C20.5181 29.106 21.3646 28.5981 22.0419 27.5822L19.5022 26.7356V29.4446ZM17.3011 29.4446V26.9049L14.7614 27.7515C15.4387 28.5981 16.2853 29.2753 17.3011 29.4446ZM15.1001 22.8414C14.4228 23.5187 14.0842 24.5346 14.0842 25.5504V25.8891L16.6239 24.8732L15.1001 22.8414ZM18.317 21.1483C17.8091 21.1483 17.3011 21.3176 16.7932 21.4869L18.317 23.688L19.8408 21.4869C19.5022 21.3176 18.9943 21.1483 18.317 21.1483ZM21.7032 22.8414L20.1794 25.0425L22.7191 25.8891C22.7191 25.7197 22.7191 25.7198 22.7191 25.5504C22.5498 24.3653 22.2112 23.5187 21.7032 22.8414Z" stroke="#0F1111" stroke-width="0.5" stroke-miterlimit="10" stroke-linecap="round" stroke-linejoin="round"/>
<path d="M18.3175 26.2273C17.85 26.2273 17.4709 25.8483 17.4709 25.3807C17.4709 24.9132 17.85 24.5342 18.3175 24.5342C18.785 24.5342 19.1641 24.9132 19.1641 25.3807C19.1641 25.8483 18.785 26.2273 18.3175 26.2273Z" stroke="#0F1111" stroke-width="0.5" stroke-miterlimit="10" stroke-linecap="round" stroke-linejoin="round"/>
<path d="M9.51263 25.0428C9.68194 20.302 13.5761 16.5771 18.3169 16.5771C23.2269 16.5771 27.1211 20.4713 27.1211 25.3814C27.1211 25.8893 27.1211 26.2279 26.9518 26.7359L25.2587 26.5666C25.2587 26.2279 25.428 25.72 25.428 25.3814C25.428 21.4872 22.211 18.2703 18.3169 18.2703C14.4227 18.2703 11.2057 21.4872 11.2057 25.3814C10.8671 25.3814 10.1899 25.2121 9.51263 25.0428Z" stroke="#0F1111" stroke-miterlimit="10" stroke-linecap="round" stroke-linejoin="round"/>
<path d="M8.66577 10.3125C8.66577 10.3125 48.4541 11.3284 70.9727 13.5294C48.2848 11.3284 8.66577 10.3125 8.66577 10.3125Z" stroke="#0F1111" stroke-width="0.5" stroke-miterlimit="10" stroke-linecap="round" stroke-linejoin="round"/>
<path d="M41.8509 24.3648C43.0361 18.2696 42.1895 12.8516 42.1895 12.8516L41.8509 11.4971" stroke="#0F1111" stroke-width="0.5" stroke-miterlimit="10" stroke-linecap="round" stroke-linejoin="round"/>
<path d="M23.7355 16.4076V12.1748L24.582 10.8203" stroke="#0F1111" stroke-width="0.5" stroke-miterlimit="10" stroke-linecap="round" stroke-linejoin="round"/>
<path d="M41.851 24.3652H61.6605C61.6605 24.3652 63.6923 15.7302 61.1526 12.6826C63.6923 15.5609 61.8298 24.3652 61.8298 24.3652H41.851ZM41.851 24.3652H29.1526H28.814C28.4753 20.9789 26.4436 18.1006 23.7346 16.4075C22.2108 15.3916 20.3483 14.8837 18.3166 14.8837" stroke="#0F1111" stroke-width="0.5" stroke-miterlimit="10" stroke-linecap="round" stroke-linejoin="round"/>
<path d="M73.3423 16.5771C78.2523 16.5771 82.1465 20.4713 82.1465 25.3814C82.1465 25.8893 82.1465 26.3973 81.9772 26.7359H80.792H80.1147C80.2841 26.2279 80.2841 25.8893 80.2841 25.3814C80.2841 21.4872 77.0671 18.2703 73.1729 18.2703C69.2788 18.2703 66.0618 21.4872 66.0618 25.3814C66.0618 25.8893 66.0618 26.3973 66.2311 26.7359H64.538C64.538 26.2279 64.3687 25.8893 64.3687 25.3814C64.538 20.6406 68.4322 16.5771 73.3423 16.5771Z" stroke="#0F1111" stroke-miterlimit="10" stroke-linecap="round" stroke-linejoin="round"/>
<path d="M81.9785 19.4552C80.1161 16.7462 76.8992 14.8838 73.3436 14.8838" stroke="#0F1111" stroke-width="0.5" stroke-miterlimit="10" stroke-linecap="round" stroke-linejoin="round"/>
<path d="M14.0837 3.87842C14.0837 3.87842 21.1948 3.37048 28.6445 3.20117L24.581 10.8202C15.2689 10.4816 8.66569 10.3123 8.66569 10.3123C9.85087 8.11122 14.0837 3.87842 14.0837 3.87842ZM12.8985 8.95778L22.2107 9.29641C23.0572 9.29641 23.9038 8.78847 24.2424 8.11122L26.1048 4.89429C20.8562 5.06361 16.1154 5.40223 16.1154 5.40223C15.2689 5.40223 14.253 5.91017 13.7451 6.58742L12.3906 8.11122C11.8826 8.44985 12.0519 8.78847 12.8985 8.95778Z" stroke="#0F1111" stroke-width="0.5" stroke-miterlimit="10" stroke-linecap="round" stroke-linejoin="round"/>
<path d="M26.1055 4.72461C20.8568 4.89392 16.116 5.23254 16.116 5.23254C15.2695 5.23254 14.2536 5.74048 13.7457 6.41773L12.3912 7.94154C11.8832 8.44948 12.0526 8.95741 12.8991 8.95741L22.2113 9.29604C23.0578 9.29604 23.9044 8.7881 24.243 8.11085L26.1055 4.72461Z" stroke="#0F1111" stroke-width="0.5" stroke-miterlimit="10" stroke-linecap="round" stroke-linejoin="round"/>
<path d="M40.3281 10.1433C35.926 9.97402 29.3228 9.6354 29.3228 9.6354C27.799 9.6354 27.1218 8.45021 27.799 7.09571L29.3228 4.38672C30.508 4.38672 31.6932 4.38672 32.7091 4.38672C33.3863 4.38672 34.0636 4.38672 34.5715 4.38672C36.0953 4.38672 37.4498 4.38672 38.8043 4.38672L40.3281 10.1433Z" stroke="#0F1111" stroke-width="0.5" stroke-miterlimit="10" stroke-linecap="round" stroke-linejoin="round"/>
<path d="M13.0693 15.5606C12.3213 15.5606 11.7148 14.9541 11.7148 14.2061C11.7148 13.458 12.3213 12.8516 13.0693 12.8516C13.8174 12.8516 14.4238 13.458 14.4238 14.2061C14.4238 14.9541 13.8174 15.5606 13.0693 15.5606Z" stroke="#0F1111" stroke-width="0.5" stroke-miterlimit="10" stroke-linecap="round" stroke-linejoin="round"/>
<path d="M66.2334 15.8994C65.4853 15.8994 64.8789 15.5962 64.8789 15.2222C64.8789 14.8481 65.4853 14.5449 66.2334 14.5449C66.9815 14.5449 67.5879 14.8481 67.5879 15.2222C67.5879 15.5962 66.9815 15.8994 66.2334 15.8994Z" stroke="#0F1111" stroke-width="0.5" stroke-miterlimit="10" stroke-linecap="round" stroke-linejoin="round"/>
<path d="M48.793 14.2061H44.5602V15.5606H48.793V14.2061Z" stroke="#0F1111" stroke-width="0.5" stroke-miterlimit="10" stroke-linecap="round" stroke-linejoin="round"/>
<path d="M30.3379 12.6826H26.1051V14.0371H30.3379V12.6826Z" stroke="#0F1111" stroke-width="0.5" stroke-miterlimit="10" stroke-linecap="round" stroke-linejoin="round"/>
<path d="M52.5175 10.8206L53.0254 7.94227C50.3164 6.41847 47.6074 5.06397 45.745 4.72534C45.745 4.72534 44.2212 4.55603 41.5122 4.38672L42.8667 10.3126C46.2529 10.482 49.4698 10.6513 52.5175 10.8206Z" stroke="#0F1111" stroke-width="0.5" stroke-miterlimit="10" stroke-linecap="round" stroke-linejoin="round"/>
<path d="M52.5189 10.8207L53.0268 7.94238C54.72 8.95826 56.4131 10.1434 57.7676 11.1593C56.0745 10.99 54.3813 10.99 52.5189 10.8207Z" stroke="#0F1111" stroke-width="0.5" stroke-miterlimit="10" stroke-linecap="round" stroke-linejoin="round"/>
</svg>
