<svg width="94" height="44" viewBox="0 0 94 44" fill="none" xmlns="http://www.w3.org/2000/svg">
<path d="M47.4226 27.333L50.4702 24.9626H52.1633C52.1633 24.9626 52.1633 5.15309 52.1633 2.95203C52.1633 0.750977 53.8564 0.750977 53.8564 0.750977C53.8564 0.750977 63.5072 0.750977 65.2003 0.750977C66.8935 0.750977 67.4014 1.59754 67.4014 1.59754C70.1104 1.59754 71.8035 3.62928 71.8035 3.62928H69.6025L73.8353 12.9415H76.8829C76.8829 12.9415 89.5813 17.5129 90.2585 17.8515C91.2744 18.3594 91.613 19.206 91.613 19.206L92.6289 27.6716V30.7192C92.6289 30.7192 91.613 31.3965 91.613 32.243C91.613 33.0896 92.2903 33.4282 92.2903 33.4282V34.952L86.703 35.9679C86.703 35.7986 86.703 35.6293 86.703 35.2907C86.703 29.8727 82.3009 25.4706 76.8829 25.4706C71.4649 25.4706 67.0628 29.8727 67.0628 35.2907V36.3065H65.8776H38.449C38.449 31.3965 34.7242 27.5023 34.7242 27.5023H47.4226V27.333Z" stroke="#0F1111" stroke-miterlimit="10" stroke-linecap="round" stroke-linejoin="round"/>
<path d="M86.703 35.7987L92.2903 34.9522V33.4284C92.2903 33.4284 91.613 33.0897 91.613 32.2432C91.613 31.3966 92.6289 30.7194 92.6289 30.7194V28.1797H83.6554C85.5178 30.0421 86.703 32.4125 86.703 35.2908V35.7987Z" stroke="#0F1111" stroke-miterlimit="10" stroke-linecap="round" stroke-linejoin="round"/>
<path d="M36.4178 29.7031H68.9258C67.9099 31.2269 67.2327 33.2587 67.2327 35.2904V36.3063H66.0475H38.6189C38.4496 33.5973 37.4337 31.2269 36.4178 29.7031Z" stroke="#0F1111" stroke-miterlimit="10" stroke-linecap="round" stroke-linejoin="round"/>
<path d="M28.7976 43.0787C24.4962 43.0787 21.0092 39.5917 21.0092 35.2903C21.0092 30.9889 24.4962 27.502 28.7976 27.502C33.099 27.502 36.5859 30.9889 36.5859 35.2903C36.5859 39.5917 33.099 43.0787 28.7976 43.0787Z" stroke="#0F1111" stroke-miterlimit="10" stroke-linecap="round" stroke-linejoin="round"/>
<path d="M11.1902 43.0787C6.88877 43.0787 3.4018 39.5917 3.4018 35.2903C3.4018 30.9889 6.88877 27.502 11.1902 27.502C15.4916 27.502 18.9785 30.9889 18.9785 35.2903C18.9785 39.5917 15.4916 43.0787 11.1902 43.0787Z" stroke="#0F1111" stroke-miterlimit="10" stroke-linecap="round" stroke-linejoin="round"/>
<path d="M28.7982 40.5393C25.8994 40.5393 23.5495 38.1894 23.5495 35.2907C23.5495 32.3919 25.8994 30.042 28.7982 30.042C31.697 30.042 34.0469 32.3919 34.0469 35.2907C34.0469 38.1894 31.697 40.5393 28.7982 40.5393Z" stroke="#0F1111" stroke-width="0.5" stroke-miterlimit="10" stroke-linecap="round" stroke-linejoin="round"/>
<path d="M11.1888 40.5393C8.29006 40.5393 5.94015 38.1894 5.94015 35.2907C5.94015 32.3919 8.29006 30.042 11.1888 30.042C14.0876 30.042 16.4375 32.3919 16.4375 35.2907C16.4375 38.1894 14.0876 40.5393 11.1888 40.5393Z" stroke="#0F1111" stroke-width="0.5" stroke-miterlimit="10" stroke-linecap="round" stroke-linejoin="round"/>
<path d="M76.8835 43.0787C72.5821 43.0787 69.0952 39.5917 69.0952 35.2903C69.0952 30.9889 72.5821 27.502 76.8835 27.502C81.1849 27.502 84.6719 30.9889 84.6719 35.2903C84.6719 39.5917 81.1849 43.0787 76.8835 43.0787Z" stroke="#0F1111" stroke-miterlimit="10" stroke-linecap="round" stroke-linejoin="round"/>
<path d="M76.8822 40.5393C73.9834 40.5393 71.6335 38.1894 71.6335 35.2907C71.6335 32.3919 73.9834 30.042 76.8822 30.042C79.7809 30.042 82.1309 32.3919 82.1309 35.2907C82.1309 38.1894 79.7809 40.5393 76.8822 40.5393Z" stroke="#0F1111" stroke-width="0.5" stroke-miterlimit="10" stroke-linecap="round" stroke-linejoin="round"/>
<path d="M76.883 39.6929C74.4518 39.6929 72.4809 37.722 72.4809 35.2908C72.4809 32.8596 74.4518 30.8887 76.883 30.8887C79.3143 30.8887 81.2852 32.8596 81.2852 35.2908C81.2852 37.722 79.3143 39.6929 76.883 39.6929Z" stroke="#0F1111" stroke-width="0.5" stroke-miterlimit="10" stroke-linecap="round" stroke-linejoin="round"/>
<path d="M76.8812 36.4758C76.2267 36.4758 75.696 35.9452 75.696 35.2907C75.696 34.6361 76.2267 34.1055 76.8812 34.1055C77.5358 34.1055 78.0664 34.6361 78.0664 35.2907C78.0664 35.9452 77.5358 36.4758 76.8812 36.4758Z" stroke="#0F1111" stroke-width="0.5" stroke-miterlimit="10" stroke-linecap="round" stroke-linejoin="round"/>
<path d="M76.8827 32.9202C76.6022 32.9202 76.3748 32.6928 76.3748 32.4122C76.3748 32.1317 76.6022 31.9043 76.8827 31.9043C77.1632 31.9043 77.3906 32.1317 77.3906 32.4122C77.3906 32.6928 77.1632 32.9202 76.8827 32.9202Z" stroke="#0F1111" stroke-width="0.5" stroke-miterlimit="10" stroke-linecap="round" stroke-linejoin="round"/>
<path d="M76.8827 38.5071C76.6022 38.5071 76.3748 38.2797 76.3748 37.9991C76.3748 37.7186 76.6022 37.4912 76.8827 37.4912C77.1632 37.4912 77.3906 37.7186 77.3906 37.9991C77.3906 38.2797 77.1632 38.5071 76.8827 38.5071Z" stroke="#0F1111" stroke-width="0.5" stroke-miterlimit="10" stroke-linecap="round" stroke-linejoin="round"/>
<path d="M79.4218 37.1526C79.1412 37.1526 78.9138 36.9252 78.9138 36.6447C78.9138 36.3641 79.1412 36.1367 79.4218 36.1367C79.7023 36.1367 79.9297 36.3641 79.9297 36.6447C79.9297 36.9252 79.7023 37.1526 79.4218 37.1526Z" stroke="#0F1111" stroke-width="0.5" stroke-miterlimit="10" stroke-linecap="round" stroke-linejoin="round"/>
<path d="M74.5116 34.2747C74.2311 34.2747 74.0037 34.0472 74.0037 33.7667C74.0037 33.4862 74.2311 33.2588 74.5116 33.2588C74.7921 33.2588 75.0195 33.4862 75.0195 33.7667C75.0195 34.0472 74.7921 34.2747 74.5116 34.2747Z" stroke="#0F1111" stroke-width="0.5" stroke-miterlimit="10" stroke-linecap="round" stroke-linejoin="round"/>
<path d="M74.5116 37.1526C74.2311 37.1526 74.0037 36.9252 74.0037 36.6447C74.0037 36.3641 74.2311 36.1367 74.5116 36.1367C74.7921 36.1367 75.0195 36.3641 75.0195 36.6447C75.0195 36.9252 74.7921 37.1526 74.5116 37.1526Z" stroke="#0F1111" stroke-width="0.5" stroke-miterlimit="10" stroke-linecap="round" stroke-linejoin="round"/>
<path d="M79.4218 34.2747C79.1412 34.2747 78.9138 34.0472 78.9138 33.7667C78.9138 33.4862 79.1412 33.2588 79.4218 33.2588C79.7023 33.2588 79.9297 33.4862 79.9297 33.7667C79.9297 34.0472 79.7023 34.2747 79.4218 34.2747Z" stroke="#0F1111" stroke-width="0.5" stroke-miterlimit="10" stroke-linecap="round" stroke-linejoin="round"/>
<path d="M28.7971 39.6929C26.3659 39.6929 24.395 37.722 24.395 35.2908C24.395 32.8596 26.3659 30.8887 28.7971 30.8887C31.2283 30.8887 33.1992 32.8596 33.1992 35.2908C33.1992 37.722 31.2283 39.6929 28.7971 39.6929Z" stroke="#0F1111" stroke-width="0.5" stroke-miterlimit="10" stroke-linecap="round" stroke-linejoin="round"/>
<path d="M28.7972 36.4758C28.1427 36.4758 27.6121 35.9452 27.6121 35.2907C27.6121 34.6361 28.1427 34.1055 28.7972 34.1055C29.4518 34.1055 29.9824 34.6361 29.9824 35.2907C29.9824 35.9452 29.4518 36.4758 28.7972 36.4758Z" stroke="#0F1111" stroke-width="0.5" stroke-miterlimit="10" stroke-linecap="round" stroke-linejoin="round"/>
<path d="M28.7987 32.9202C28.5182 32.9202 28.2908 32.6928 28.2908 32.4122C28.2908 32.1317 28.5182 31.9043 28.7987 31.9043C29.0792 31.9043 29.3066 32.1317 29.3066 32.4122C29.3066 32.6928 29.0792 32.9202 28.7987 32.9202Z" stroke="#0F1111" stroke-width="0.5" stroke-miterlimit="10" stroke-linecap="round" stroke-linejoin="round"/>
<path d="M28.7987 38.5071C28.5182 38.5071 28.2908 38.2797 28.2908 37.9991C28.2908 37.7186 28.5182 37.4912 28.7987 37.4912C29.0792 37.4912 29.3066 37.7186 29.3066 37.9991C29.3066 38.2797 29.0792 38.5071 28.7987 38.5071Z" stroke="#0F1111" stroke-width="0.5" stroke-miterlimit="10" stroke-linecap="round" stroke-linejoin="round"/>
<path d="M31.3378 37.1526C31.0572 37.1526 30.8298 36.9252 30.8298 36.6447C30.8298 36.3641 31.0572 36.1367 31.3378 36.1367C31.6183 36.1367 31.8457 36.3641 31.8457 36.6447C31.8457 36.9252 31.6183 37.1526 31.3378 37.1526Z" stroke="#0F1111" stroke-width="0.5" stroke-miterlimit="10" stroke-linecap="round" stroke-linejoin="round"/>
<path d="M26.4276 34.2747C26.1471 34.2747 25.9197 34.0472 25.9197 33.7667C25.9197 33.4862 26.1471 33.2588 26.4276 33.2588C26.7081 33.2588 26.9355 33.4862 26.9355 33.7667C26.9355 34.0472 26.7081 34.2747 26.4276 34.2747Z" stroke="#0F1111" stroke-width="0.5" stroke-miterlimit="10" stroke-linecap="round" stroke-linejoin="round"/>
<path d="M26.4276 37.1526C26.1471 37.1526 25.9197 36.9252 25.9197 36.6447C25.9197 36.3641 26.1471 36.1367 26.4276 36.1367C26.7081 36.1367 26.9355 36.3641 26.9355 36.6447C26.9355 36.9252 26.7081 37.1526 26.4276 37.1526Z" stroke="#0F1111" stroke-width="0.5" stroke-miterlimit="10" stroke-linecap="round" stroke-linejoin="round"/>
<path d="M31.3378 34.2747C31.0572 34.2747 30.8298 34.0472 30.8298 33.7667C30.8298 33.4862 31.0572 33.2588 31.3378 33.2588C31.6183 33.2588 31.8457 33.4862 31.8457 33.7667C31.8457 34.0472 31.6183 34.2747 31.3378 34.2747Z" stroke="#0F1111" stroke-width="0.5" stroke-miterlimit="10" stroke-linecap="round" stroke-linejoin="round"/>
<path d="M11.1897 39.6929C8.75846 39.6929 6.78757 37.722 6.78757 35.2908C6.78757 32.8596 8.75846 30.8887 11.1897 30.8887C13.6209 30.8887 15.5918 32.8596 15.5918 35.2908C15.5918 37.722 13.6209 39.6929 11.1897 39.6929Z" stroke="#0F1111" stroke-width="0.5" stroke-miterlimit="10" stroke-linecap="round" stroke-linejoin="round"/>
<path d="M11.1898 36.4758C10.5353 36.4758 10.0046 35.9452 10.0046 35.2907C10.0046 34.6361 10.5353 34.1055 11.1898 34.1055C11.8444 34.1055 12.375 34.6361 12.375 35.2907C12.375 35.9452 11.8444 36.4758 11.1898 36.4758Z" stroke="#0F1111" stroke-width="0.5" stroke-miterlimit="10" stroke-linecap="round" stroke-linejoin="round"/>
<path d="M11.1893 32.9202C10.9088 32.9202 10.6814 32.6928 10.6814 32.4122C10.6814 32.1317 10.9088 31.9043 11.1893 31.9043C11.4699 31.9043 11.6973 32.1317 11.6973 32.4122C11.6973 32.6928 11.4699 32.9202 11.1893 32.9202Z" stroke="#0F1111" stroke-width="0.5" stroke-miterlimit="10" stroke-linecap="round" stroke-linejoin="round"/>
<path d="M11.1893 38.5071C10.9088 38.5071 10.6814 38.2797 10.6814 37.9991C10.6814 37.7186 10.9088 37.4912 11.1893 37.4912C11.4699 37.4912 11.6973 37.7186 11.6973 37.9991C11.6973 38.2797 11.4699 38.5071 11.1893 38.5071Z" stroke="#0F1111" stroke-width="0.5" stroke-miterlimit="10" stroke-linecap="round" stroke-linejoin="round"/>
<path d="M13.7284 37.1526C13.4479 37.1526 13.2205 36.9252 13.2205 36.6447C13.2205 36.3641 13.4479 36.1367 13.7284 36.1367C14.0089 36.1367 14.2363 36.3641 14.2363 36.6447C14.2363 36.9252 14.0089 37.1526 13.7284 37.1526Z" stroke="#0F1111" stroke-width="0.5" stroke-miterlimit="10" stroke-linecap="round" stroke-linejoin="round"/>
<path d="M8.81823 34.2747C8.5377 34.2747 8.31029 34.0472 8.31029 33.7667C8.31029 33.4862 8.5377 33.2588 8.81823 33.2588C9.09876 33.2588 9.32617 33.4862 9.32617 33.7667C9.32617 34.0472 9.09876 34.2747 8.81823 34.2747Z" stroke="#0F1111" stroke-width="0.5" stroke-miterlimit="10" stroke-linecap="round" stroke-linejoin="round"/>
<path d="M8.81823 37.1526C8.5377 37.1526 8.31029 36.9252 8.31029 36.6447C8.31029 36.3641 8.5377 36.1367 8.81823 36.1367C9.09876 36.1367 9.32617 36.3641 9.32617 36.6447C9.32617 36.9252 9.09876 37.1526 8.81823 37.1526Z" stroke="#0F1111" stroke-width="0.5" stroke-miterlimit="10" stroke-linecap="round" stroke-linejoin="round"/>
<path d="M13.7284 34.2747C13.4479 34.2747 13.2205 34.0472 13.2205 33.7667C13.2205 33.4862 13.4479 33.2588 13.7284 33.2588C14.0089 33.2588 14.2363 33.4862 14.2363 33.7667C14.2363 34.0472 14.0089 34.2747 13.7284 34.2747Z" stroke="#0F1111" stroke-width="0.5" stroke-miterlimit="10" stroke-linecap="round" stroke-linejoin="round"/>
<path d="M91.2734 26.9946C91.2734 26.9946 89.0724 23.6084 87.3793 23.6084C85.6861 23.6084 85.8554 25.1322 85.8554 25.1322C85.8554 25.1322 86.5327 26.9946 88.9031 26.9946H91.2734Z" stroke="#0F1111" stroke-miterlimit="10" stroke-linecap="round" stroke-linejoin="round"/>
<path d="M72.8201 12.9417C72.8201 12.9417 71.4656 12.7724 70.9576 11.7565L67.4021 3.79883H69.6031L73.8359 12.9417H72.8201Z" stroke="#0F1111" stroke-miterlimit="10" stroke-linecap="round" stroke-linejoin="round"/>
<path d="M92.291 25.3014L89.9206 22.7617L89.0741 17.3438C89.7513 17.6824 90.2593 17.8517 90.4286 17.8517C91.2751 18.3596 91.6138 19.2062 91.6138 19.2062L92.291 25.3014Z" stroke="#0F1111" stroke-miterlimit="10" stroke-linecap="round" stroke-linejoin="round"/>
<path d="M52.3325 25.1318H69.2637" stroke="#0F1111" stroke-width="0.5" stroke-miterlimit="10" stroke-linecap="round" stroke-linejoin="round"/>
<path d="M66.3854 25.1323H55.7187V5.32276C55.7187 5.32276 55.888 3.29102 58.0891 3.29102C60.2901 3.29102 64.015 3.29102 64.015 3.29102C64.015 3.29102 66.0467 3.29102 66.724 5.15345C67.4012 7.01588 69.2637 12.2646 69.2637 12.2646V21.4074L66.3854 25.1323Z" stroke="#0F1111" stroke-width="0.5" stroke-miterlimit="10" stroke-linecap="round" stroke-linejoin="round"/>
<path d="M87.5488 18.5288L55.7181 12.4336" stroke="#0F1111" stroke-width="0.5" stroke-miterlimit="10" stroke-linecap="round" stroke-linejoin="round"/>
<path d="M38.6178 27.3329L39.4644 28.3488H65.877L73.4961 20.7298V12.9414" stroke="#0F1111" stroke-width="0.5" stroke-miterlimit="10" stroke-linecap="round" stroke-linejoin="round"/>
<path d="M73.4967 20.7297C73.4967 20.7297 81.4543 18.3593 87.2109 22.0842" stroke="#0F1111" stroke-width="0.5" stroke-miterlimit="10" stroke-linecap="round" stroke-linejoin="round"/>
<path d="M76.883 25.4707C82.301 25.4707 86.7031 29.8728 86.7031 35.2908V35.9681L84.6714 36.3067C84.6714 35.9681 84.6714 35.6294 84.6714 35.2908C84.6714 30.8887 81.1158 27.5025 76.883 27.5025C72.4809 27.5025 69.0947 31.058 69.0947 35.2908V36.3067H67.0629C67.0629 35.9681 67.0629 35.6294 67.0629 35.2908C67.0629 29.8728 71.465 25.4707 76.883 25.4707Z" stroke="#0F1111" stroke-miterlimit="10" stroke-linecap="round" stroke-linejoin="round"/>
<path d="M36.7567 35.2908C36.7567 32.2432 34.8943 29.5342 32.3546 28.1797H35.5715C36.5874 29.3649 38.2805 32.0739 38.6191 35.2908H36.7567Z" stroke="#0F1111" stroke-miterlimit="10" stroke-linecap="round" stroke-linejoin="round"/>
<path d="M14.5761 28.1797H25.4121C22.7031 29.3649 21.01 32.0739 21.01 35.2908H18.9782C19.1476 32.0739 17.2851 29.3649 14.5761 28.1797Z" stroke="#0F1111" stroke-miterlimit="10" stroke-linecap="round" stroke-linejoin="round"/>
<path d="M4.75707 28.1797H7.80469C5.09569 29.3649 3.40257 32.0739 3.40257 35.2908H1.37083V30.2114L4.75707 28.1797Z" stroke="#0F1111" stroke-miterlimit="10" stroke-linecap="round" stroke-linejoin="round"/>
<path d="M29.3058 24.1162L30.1523 25.64V27.5025C29.8137 27.5025 29.3058 27.3331 28.7978 27.3331C27.6127 27.3331 26.4275 27.6718 25.4116 28.1797H18.8084V26.148L29.3058 24.1162Z" stroke="#0F1111" stroke-miterlimit="10" stroke-linecap="round" stroke-linejoin="round"/>
<path d="M64.8613 12.9412V4.6449C64.5227 4.47559 64.1841 4.47559 64.1841 4.47559H58.2582C57.4116 4.47559 57.073 4.98352 57.073 5.32215V11.4174L64.8613 12.9412Z" stroke="#0F1111" stroke-width="0.5" stroke-miterlimit="10" stroke-linecap="round" stroke-linejoin="round"/>
<path d="M64.8625 4.64551V12.9418L67.9102 13.6191V12.6032C67.5715 11.5873 66.0477 7.3545 65.5398 5.66138C65.3705 5.15344 65.0319 4.81482 64.8625 4.64551Z" stroke="#0F1111" stroke-width="0.5" stroke-miterlimit="10" stroke-linecap="round" stroke-linejoin="round"/>
</svg>
