<svg width="94" height="34" viewBox="0 0 94 34" fill="none" xmlns="http://www.w3.org/2000/svg">
<path d="M1.70767 17.9313C2.04629 16.9155 3.23147 16.5768 3.23147 16.5768C3.23147 12.1747 5.43253 8.61917 5.43253 8.61917L4.07803 7.6033L4.24735 6.92605C7.46428 6.92605 12.8823 4.8943 20.1627 3.03187C27.6124 1.16944 33.1997 0.492188 41.496 0.492188C49.7923 0.492188 55.2103 2.35462 55.2103 2.35462L73.496 10.3123C81.9616 10.8202 87.5489 13.8678 88.9034 14.8837C90.2579 15.8996 90.4272 18.4393 90.4272 18.4393L92.459 19.1165V22.1641H91.2738L90.4272 24.8731L91.7817 25.3811C91.7817 26.9049 86.8717 27.2435 86.8717 27.2435L84.332 27.4128C84.332 27.2435 84.332 26.9049 84.332 26.7356C84.332 21.8255 80.4378 17.9313 75.5278 17.9313C70.6177 17.9313 66.7235 21.8255 66.7235 26.7356C66.7235 27.2435 66.7235 27.5821 66.8928 28.0901H28.7976C28.7976 27.5821 28.9669 27.2435 28.9669 26.7356C28.9669 21.8255 25.0727 17.9313 20.1627 17.9313C15.2526 17.9313 11.3585 21.8255 11.3585 26.7356V27.4128L3.5701 27.0742L1.36904 24.3652C1.36904 21.8255 1.36904 18.9472 1.70767 17.9313Z" stroke="#0F1111" stroke-miterlimit="10" stroke-linecap="round" stroke-linejoin="round"/>
<path d="M84.5019 27.2439C84.5019 27.0746 84.5019 26.736 84.5019 26.5667C84.5019 23.3498 82.6395 20.4714 80.0998 18.9476H83.8247L85.6871 17.4238L89.0734 18.4397L90.5972 18.9476L92.6289 19.6249V22.6725H91.4437L90.4278 24.8736L91.7823 25.3815C91.7823 26.9053 86.8723 27.2439 86.8723 27.2439H84.5019Z" stroke="#0F1111" stroke-miterlimit="10" stroke-linecap="round" stroke-linejoin="round"/>
<path d="M15.4219 19.1163C13.0515 20.6402 11.3584 23.3492 11.3584 26.3968V27.074L3.57002 26.7354L1.36897 24.0264C1.36897 21.8253 1.36897 18.947 1.70759 17.9312C2.04622 16.9153 3.2314 16.5767 3.2314 16.5767C3.2314 16.5767 3.57002 16.5767 4.92452 16.5767C5.77108 16.5767 6.27902 16.0687 6.61764 15.8994C7.80283 16.0687 9.32664 16.4073 10.8504 16.5767C12.7129 17.0846 14.2367 18.1005 15.4219 19.1163Z" stroke="#0F1111" stroke-miterlimit="10" stroke-linecap="round" stroke-linejoin="round"/>
<path d="M75.6982 33.169C71.9579 33.169 68.9257 30.1369 68.9257 26.3965C68.9257 22.6562 71.9579 19.624 75.6982 19.624C79.4386 19.624 82.4707 22.6562 82.4707 26.3965C82.4707 30.1369 79.4386 33.169 75.6982 33.169Z" stroke="#0F1111" stroke-miterlimit="10" stroke-linecap="round" stroke-linejoin="round"/>
<path d="M75.698 21.3174C78.5763 21.3174 80.7773 23.5184 80.7773 26.3968C80.7773 29.2751 78.5763 31.4761 75.698 31.4761C72.8197 31.4761 70.6186 29.2751 70.6186 26.3968C70.6186 23.6878 72.8197 21.3174 75.698 21.3174ZM74.6821 22.5026C73.6662 22.8412 72.8197 23.3491 72.3117 24.1957L74.6821 25.0422V22.5026ZM76.7139 22.5026V25.0422L79.0842 24.1957C78.5763 23.5184 77.7297 22.8412 76.7139 22.5026ZM78.7456 29.1057C79.4228 28.2592 79.7615 27.4126 79.7615 26.3968V26.2274L77.3911 27.074L78.7456 29.1057ZM75.698 30.4602C76.2059 30.4602 76.7139 30.2909 77.2218 30.1216L75.698 28.0899L74.1742 30.1216C74.6821 30.4602 75.19 30.4602 75.698 30.4602ZM72.481 29.1057L74.0049 27.074L71.6345 26.2274V26.3968C71.6345 27.4126 71.9731 28.2592 72.481 29.1057Z" stroke="#0F1111" stroke-width="0.5" stroke-miterlimit="10" stroke-linecap="round" stroke-linejoin="round"/>
<path d="M75.6984 27.2439C75.2308 27.2439 74.8518 26.8649 74.8518 26.3973C74.8518 25.9298 75.2308 25.5508 75.6984 25.5508C76.1659 25.5508 76.5449 25.9298 76.5449 26.3973C76.5449 26.8649 76.1659 27.2439 75.6984 27.2439Z" stroke="#0F1111" stroke-width="0.5" stroke-miterlimit="10" stroke-linecap="round" stroke-linejoin="round"/>
<path d="M20.1631 33.169C16.4227 33.169 13.3906 30.1369 13.3906 26.3965C13.3906 22.6562 16.4227 19.624 20.1631 19.624C23.9034 19.624 26.9355 22.6562 26.9355 26.3965C26.9355 30.1369 23.9034 33.169 20.1631 33.169Z" stroke="#0F1111" stroke-miterlimit="10" stroke-linecap="round" stroke-linejoin="round"/>
<path d="M6.61892 15.8992C6.78823 15.7299 6.78824 15.7299 6.78824 15.7299C6.78824 15.7299 8.14273 12.6823 8.48136 11.8357C8.81998 10.9891 8.14273 10.4812 8.14273 10.4812L5.43373 8.78809C5.43373 8.78809 3.23268 12.3436 3.23268 16.7458C3.23268 16.7458 3.5713 16.7458 4.9258 16.7458C5.94167 16.5764 6.44961 16.2378 6.61892 15.8992Z" stroke="#0F1111" stroke-miterlimit="10" stroke-linecap="round" stroke-linejoin="round"/>
<path d="M85.688 17.2538C85.688 17.2538 79.0848 14.0369 79.0848 13.1903C79.0848 12.3438 83.1483 13.3596 85.688 14.5448C88.2277 15.73 89.0742 18.2697 89.0742 18.2697L85.688 17.2538Z" stroke="#0F1111" stroke-miterlimit="10" stroke-linecap="round" stroke-linejoin="round"/>
<path d="M43.5273 12.6819C33.03 12.174 23.5485 11.8354 22.7019 11.8354H21.6861C21.8554 11.3274 22.0247 10.9888 22.0247 10.9888L26.0882 4.047C30.6596 3.03113 36.0776 2.18457 41.6649 2.18457C41.8342 3.03113 42.1728 5.4015 43.1887 10.6502C43.358 11.1581 43.5273 12.0047 43.5273 12.6819Z" stroke="#0F1111" stroke-width="0.5" stroke-miterlimit="10" stroke-linecap="round" stroke-linejoin="round"/>
<path d="M65.1992 13.6982C59.4426 13.3595 51.1463 13.0209 43.5273 12.6823C43.5273 12.005 43.3579 11.3278 43.1886 10.4812C42.3421 5.06324 41.8341 2.86219 41.6648 2.01562C54.1939 2.01562 62.1516 7.77224 62.1516 7.77224C63.6754 9.80398 64.6913 11.6664 65.1992 13.6982Z" stroke="#0F1111" stroke-width="0.5" stroke-miterlimit="10" stroke-linecap="round" stroke-linejoin="round"/>
<path d="M64.5221 25.8891H43.0194H28.9665H43.1887H64.5221ZM64.5221 25.8891C64.5221 25.8891 67.4004 20.4711 65.1993 13.5293M64.5221 25.8891C64.5221 25.8891 67.2311 20.4711 65.1993 13.5293M65.1993 13.5293C69.7707 13.6986 72.8184 13.8679 72.8184 13.8679" stroke="#0F1111" stroke-width="0.5" stroke-miterlimit="10" stroke-linecap="round" stroke-linejoin="round"/>
<path d="M68.0783 18.7771C72.3111 14.5443 79.0836 14.5443 83.3164 18.7771" stroke="#0F1111" stroke-width="0.5" stroke-miterlimit="10" stroke-linecap="round" stroke-linejoin="round"/>
<path d="M27.7812 18.7779C23.8871 14.8837 17.7918 14.5451 13.559 17.762C17.9611 14.5451 23.8871 14.8837 27.7812 18.7779Z" stroke="#0F1111" stroke-width="0.5" stroke-miterlimit="10" stroke-linecap="round" stroke-linejoin="round"/>
<path d="M43.02 25.8884C43.3586 23.8566 44.2051 18.6079 43.5279 12.5127C44.2051 18.6079 43.3586 24.0259 43.02 25.8884Z" stroke="#0F1111" stroke-width="0.5" stroke-miterlimit="10" stroke-linecap="round" stroke-linejoin="round"/>
<path d="M21.3475 13.5284C21.3475 14.0364 21.5168 15.7295 21.8555 17.7613C21.5168 15.8988 21.3475 14.2057 21.3475 13.5284ZM21.3475 13.5284C21.3475 12.8512 21.5168 12.174 21.6862 11.666" stroke="#0F1111" stroke-width="0.5" stroke-miterlimit="10" stroke-linecap="round" stroke-linejoin="round"/>
<path d="M20.1628 21.3174C23.0411 21.3174 25.2422 23.5184 25.2422 26.3968C25.2422 29.2751 23.0411 31.4761 20.1628 31.4761C17.2845 31.4761 15.0835 29.2751 15.0835 26.3968C15.0835 23.6878 17.4538 21.3174 20.1628 21.3174ZM19.147 22.5026C18.1311 22.8412 17.2845 23.3491 16.7766 24.1957L19.147 25.0422V22.5026ZM21.1787 22.5026V25.0422L23.5491 24.1957C23.0411 23.5184 22.1946 22.8412 21.1787 22.5026ZM23.3798 29.1057C23.8877 28.4285 24.3956 27.5819 24.3956 26.5661V26.3968L22.0253 27.2433L23.3798 29.1057ZM20.1628 30.4602C20.6708 30.4602 21.1787 30.2909 21.6866 30.1216L20.1628 28.0899L18.639 30.1216C19.147 30.4602 19.6549 30.4602 20.1628 30.4602ZM17.1152 29.1057L18.639 27.074L16.2686 26.2274V26.3968C16.0993 27.4126 16.438 28.2592 17.1152 29.1057Z" stroke="#0F1111" stroke-width="0.5" stroke-miterlimit="10" stroke-linecap="round" stroke-linejoin="round"/>
<path d="M20.1632 27.2429C19.6957 27.2429 19.3166 26.8639 19.3166 26.3964C19.3166 25.9288 19.6957 25.5498 20.1632 25.5498C20.6307 25.5498 21.0098 25.9288 21.0098 26.3964C21.0098 26.8639 20.6307 27.2429 20.1632 27.2429Z" stroke="#0F1111" stroke-width="0.5" stroke-miterlimit="10" stroke-linecap="round" stroke-linejoin="round"/>
<path d="M20.1626 17.5928C25.0726 17.5928 28.9668 21.487 28.9668 26.397C28.9668 26.9049 28.9668 27.2436 28.7975 27.7515H26.7657C26.9351 27.2436 26.935 26.9049 26.935 26.397C26.935 22.6721 23.8874 19.6245 20.1626 19.6245C16.4377 19.6245 13.3901 22.6721 13.3901 26.397V27.0743L11.3583 26.9049C11.3583 26.7356 11.3583 26.5663 11.3583 26.2277C11.3583 21.6563 15.2525 17.5928 20.1626 17.5928Z" stroke="#0F1111" stroke-miterlimit="10" stroke-linecap="round" stroke-linejoin="round"/>
<path d="M75.6977 17.5928C80.6078 17.5928 84.502 21.487 84.502 26.397V27.0743H82.4702C82.4702 26.7356 82.4702 26.5663 82.4702 26.2277C82.4702 22.5028 79.4226 19.4552 75.6977 19.4552C71.9729 19.4552 68.9252 22.5028 68.9252 26.2277C68.9252 26.7356 68.9252 27.0743 69.0945 27.5822H67.2321H67.0628C67.0628 27.0743 66.8935 26.7356 66.8935 26.2277C66.8935 21.6563 70.7877 17.5928 75.6977 17.5928Z" stroke="#0F1111" stroke-miterlimit="10" stroke-linecap="round" stroke-linejoin="round"/>
<path d="M17.1163 7.77308C18.6401 8.95827 19.9946 9.97414 19.9946 9.97414C19.9946 9.97414 20.3332 10.1435 21.0105 10.3128C21.0105 10.3128 21.0105 10.3128 21.0105 10.1435L23.7195 5.57203C20.1639 6.5879 17.6242 7.43446 17.1163 7.77308ZM17.1163 7.77308C16.947 7.77308 16.947 7.77308 17.1163 7.77308ZM16.6084 6.5879C16.6084 6.5879 20.5025 5.2334 26.0898 3.87891L22.0264 10.8207C22.0264 10.8207 21.857 11.1593 21.6877 11.6673C19.9946 11.498 19.148 10.99 19.148 10.99C19.148 10.99 17.7935 10.1435 16.2697 8.78896C14.7459 7.43446 16.6084 6.5879 16.6084 6.5879Z" stroke="#0F1111" stroke-width="0.5" stroke-miterlimit="10" stroke-linecap="round" stroke-linejoin="round"/>
<path d="M23.7188 5.74121C20.1632 6.58777 17.6235 7.60364 17.1156 7.77295H16.9463C18.4701 8.95814 19.8246 9.97401 19.8246 9.97401C19.8246 9.97401 20.1632 10.1433 20.8404 10.3126C20.8404 10.3126 20.8404 10.3126 20.8404 10.1433L23.7188 5.74121Z" stroke="#0F1111" stroke-width="0.5" stroke-miterlimit="10" stroke-linecap="round" stroke-linejoin="round"/>
<path d="M59.4444 11.8366L59.9524 7.94238C60.4603 8.28101 60.9683 8.45032 61.1376 8.61963C61.8148 9.6355 62.4921 10.8207 63 12.0059C61.9841 12.0059 60.7989 12.0059 59.4444 11.8366Z" stroke="#0F1111" stroke-width="0.5" stroke-miterlimit="10" stroke-linecap="round" stroke-linejoin="round"/>
<path d="M59.4432 11.8357C55.3797 11.6664 50.8083 11.4971 46.2369 11.1585L44.2051 3.37012C51.9935 3.87805 57.5808 6.58705 59.9512 7.94155L59.4432 11.8357Z" stroke="#0F1111" stroke-width="0.5" stroke-miterlimit="10" stroke-linecap="round" stroke-linejoin="round"/>
<path d="M40.4805 10.9892L39.8032 3.37012C35.909 3.53943 31.6762 4.04737 27.1048 5.06324L24.0572 10.3119C26.4276 10.4812 31.8455 10.6505 40.4805 10.9892Z" stroke="#0F1111" stroke-width="0.5" stroke-miterlimit="10" stroke-linecap="round" stroke-linejoin="round"/>
<path d="M49.9629 14.8838H45.8994V16.2383H49.9629V14.8838Z" stroke="#0F1111" stroke-width="0.5" stroke-miterlimit="10" stroke-linecap="round" stroke-linejoin="round"/>
<path d="M27.6133 13.5293H23.5498V14.8838H27.6133V13.5293Z" stroke="#0F1111" stroke-width="0.5" stroke-miterlimit="10" stroke-linecap="round" stroke-linejoin="round"/>
</svg>
